<svg width="0" height="0" style="position:absolute"><symbol viewBox="-1 -1 25 19" id="image-book" xmlns="http://www.w3.org/2000/svg"><path d="M10.415 14.168c.355 0 .673.294.673.699 0 .368-.283.699-.672.699a.685.685 0 01-.673-.7c0-.404.318-.698.672-.698zm10.41-4.266a.685.685 0 01-.672-.699c0-.367.283-.698.673-.698.354 0 .673.294.673.698 0 .368-.32.7-.673.7zm0-2.832c-1.132 0-2.053.956-2.053 2.133 0 .221.036.442.106.662l-6.763 3.752a2.03 2.03 0 00-1.7-.92c-.779 0-1.487.478-1.84 1.177l-6.091-3.31C1.846 10.196 1.35 9.13 1.42 8.1c.036-.515.213-.92.46-1.066.178-.11.355-.074.603.036l.035.037c1.629.883 6.905 3.751 7.117 3.862.355.147.532.22 1.134-.074l10.906-5.884c.177-.074.354-.22.354-.478 0-.331-.319-.478-.319-.478-.637-.295-1.593-.773-2.514-1.214-1.983-.956-4.25-2.06-5.24-2.611-.85-.478-1.559-.074-1.665 0l-.248.11C7.547 2.694 1.6 5.746 1.244 5.967.642 6.335.253 7.107.218 8.063c-.071 1.508.672 3.09 1.735 3.641l6.444 3.457C8.54 16.191 9.424 17 10.415 17c1.134 0 2.019-.92 2.054-2.096l7.082-3.972c.354.294.815.441 1.275.441 1.133 0 2.054-.956 2.054-2.133 0-1.214-.921-2.17-2.054-2.17z"/></symbol><symbol viewBox="-1 -1 19 19" id="image-chart" xmlns="http://www.w3.org/2000/svg"><path fill-rule="evenodd" clip-rule="evenodd" d="M12.862 0a.607.607 0 00-.607.607v15.637c0 .335.272.607.607.607h2.616a.607.607 0 00.607-.607V.607A.607.607 0 0015.478 0h-2.616zM6.128 5.202c0-.335.271-.606.606-.606h2.617c.335 0 .606.271.606.606v11.042a.607.607 0 01-.606.607H6.734a.607.607 0 01-.606-.607V5.202zM0 9.798c0-.335.272-.607.607-.607h2.616c.335 0 .607.272.607.607v6.446a.607.607 0 01-.607.607H.607A.607.607 0 010 16.244V9.798z"/></symbol><symbol viewBox="-1 -1 19 16" id="image-check" xmlns="http://www.w3.org/2000/svg"><path d="M16.446.586C16.801.96 17 1.469 17 2c0 .53-.2 1.039-.554 1.414l-9.457 10A1.84 1.84 0 015.65 14a1.84 1.84 0 01-1.337-.586l-3.783-4a2.063 2.063 0 01-.53-1.407A2.059 2.059 0 01.553 6.61c.35-.37.825-.58 1.321-.585.496-.005.974.197 1.33.561l2.446 2.586 8.12-8.586A1.84 1.84 0 0115.11 0c.501 0 .982.21 1.337.586z"/></symbol><symbol viewBox="-1 -1 23 16" id="image-discord" xmlns="http://www.w3.org/2000/svg"><path fill-rule="evenodd" clip-rule="evenodd" d="M19.165 5.954c-.754-2.29-1.601-3.509-1.67-3.607l-.004-.007C17.44 2.286 16.198.972 13.2 0l-.396.952c1.426.463 2.437 1.027 2.993 1.392a22.138 22.138 0 00-5.385-.707c-1.75 0-3.725.268-5.386.707.557-.365 1.568-.93 2.993-1.392L7.624 0c-2.996.972-4.24 2.286-4.29 2.34l-.004.007c-.069.099-.916 1.318-1.67 3.607-.751 2.281-1.037 5.5-1.047 5.63l.006.008C.747 11.774 2.31 14 6.42 14l1.065-1.362c-1.192-.28-2.33-.73-3.37-1.342l.636-.845c1.68.987 3.637 1.51 5.663 1.51 2.025 0 3.983-.523 5.663-1.51l.636.845a12.09 12.09 0 01-3.37 1.342L14.405 14c4.11 0 5.673-2.226 5.8-2.408l.007-.008c-.01-.13-.296-3.349-1.048-5.63zM7.758 8.608H6.609V6.917h1.149v1.69zm5.31 0h1.148V6.917h-1.148v1.69z"/></symbol><symbol viewBox="-1 -1 16 20" id="image-lock" xmlns="http://www.w3.org/2000/svg"><path d="M12.25 6h-.875V4.286C11.375 1.92 9.415 0 7 0S2.625 1.92 2.625 4.286V6H1.75C.783 6 0 6.767 0 7.714v8.572C0 17.233.783 18 1.75 18h10.5c.967 0 1.75-.767 1.75-1.714V7.714C14 6.767 13.217 6 12.25 6zM7 13.714c-.967 0-1.75-.767-1.75-1.714s.783-1.714 1.75-1.714 1.75.767 1.75 1.714-.783 1.714-1.75 1.714zM9.712 6H4.288V4.286C4.288 2.82 5.504 1.629 7 1.629c1.496 0 2.712 1.191 2.712 2.657V6z"/></symbol><symbol viewBox="-1 -1 23 21" id="image-profile" xmlns="http://www.w3.org/2000/svg"><path d="M20.602 7.985l-3.758-6.503A2.97 2.97 0 0014.258 0H6.742a2.99 2.99 0 00-2.586 1.504L.398 8.007a3 3 0 000 2.986l3.758 6.503A2.99 2.99 0 006.742 19h7.516a2.99 2.99 0 002.586-1.504l3.758-6.503c.53-.929.53-2.08 0-3.008zM10.5 4.18a2.331 2.331 0 012.343 2.345A2.331 2.331 0 0110.5 8.87a2.331 2.331 0 01-2.343-2.345A2.331 2.331 0 0110.5 4.18zm3.846 9.622a.42.42 0 01-.42.42H7.052a.42.42 0 01-.42-.42v-.287a3.85 3.85 0 013.846-3.85 3.85 3.85 0 013.846 3.85v.287h.022z"/></symbol><symbol viewBox="-1 -1 24 24" id="image-settings" xmlns="http://www.w3.org/2000/svg"><path d="M10.998 0c-.539.003-1.078.046-1.61.128a.193.193 0 00-.15.122c-.175.453-.17.956-.33 1.416-.16.46-.454.89-1.267 1.226-.812.337-1.323.242-1.76.03-.44-.212-.791-.571-1.234-.768a.193.193 0 00-.194.02 11.002 11.002 0 00-2.278 2.28.193.193 0 00-.022.194c.198.442.558.795.77 1.233.211.438.305.948-.031 1.76-.336.812-.763 1.106-1.223 1.266-.46.16-.962.156-1.415.329a.193.193 0 00-.122.15A11.017 11.017 0 000 10.996v.004c.003.539.046 1.078.128 1.61.01.069.057.126.122.15.452.175.956.17 1.416.33.46.16.89.454 1.226 1.267.337.812.241 1.323.03 1.761-.212.438-.571.79-.768 1.233a.193.193 0 00.02.194 11.008 11.008 0 002.28 2.279c.056.041.13.049.194.02.442-.197.795-.555 1.233-.767.438-.212.948-.306 1.76.03.812.336 1.106.764 1.266 1.223.16.46.155.962.328 1.415.025.064.082.11.15.121a10.99 10.99 0 001.613.133H11c.539-.003 1.078-.047 1.61-.129a.193.193 0 00.15-.12c.176-.453.17-.958.33-1.418.16-.46.454-.888 1.267-1.225.812-.336 1.323-.242 1.761-.03.439.212.79.571 1.234.768.064.029.138.02.193-.021a11.008 11.008 0 002.279-2.28.193.193 0 00.021-.194c-.197-.442-.557-.793-.768-1.232-.212-.438-.306-.95.03-1.761.336-.812.764-1.106 1.223-1.266.46-.16.962-.155 1.415-.328a.193.193 0 00.121-.15c.084-.534.128-1.073.133-1.612v-.004a11.003 11.003 0 00-.129-1.61.193.193 0 00-.12-.15c-.453-.175-.958-.17-1.418-.33-.46-.16-.888-.454-1.225-1.267-.336-.812-.242-1.322-.03-1.76.212-.44.571-.791.768-1.234a.193.193 0 00-.021-.194 10.997 10.997 0 00-2.28-2.278.193.193 0 00-.193-.022c-.443.198-.795.558-1.233.77-.438.211-.95.305-1.761-.031-.812-.336-1.105-.763-1.266-1.223-.16-.46-.155-.962-.328-1.415a.193.193 0 00-.15-.122A11.016 11.016 0 0011.002 0h-.004zM11 5.293A5.703 5.703 0 0116.706 11a5.704 5.704 0 01-5.707 5.707A5.704 5.704 0 015.293 11 5.703 5.703 0 0111 5.293z"/></symbol><symbol viewBox="-1 -1 14 18" id="image-social" xmlns="http://www.w3.org/2000/svg"><path d="M0 6a6 6 0 1112 0v10H0V6z"/></symbol><symbol viewBox="-1 -1 20 17" id="image-twitter" xmlns="http://www.w3.org/2000/svg"><path d="M17.613 1.694a7.527 7.527 0 01-2.08.57A3.59 3.59 0 0017.12.27a7.216 7.216 0 01-2.29.874 3.61 3.61 0 00-6.246 2.47c0 .285.024.56.084.822A10.22 10.22 0 011.226.658a3.635 3.635 0 00-.494 1.825c0 1.25.644 2.36 1.604 3.001A3.566 3.566 0 01.705 5.04v.04a3.627 3.627 0 002.892 3.548c-.294.08-.614.119-.946.119-.231 0-.465-.013-.684-.062A3.645 3.645 0 005.341 11.2a7.255 7.255 0 01-4.477 1.54c-.296 0-.58-.014-.864-.05a10.165 10.165 0 005.54 1.62c6.644 0 10.276-5.504 10.276-10.274 0-.16-.005-.314-.013-.467a7.201 7.201 0 001.81-1.875z"/></symbol></svg>