<svg width="168" height="173" viewBox="0 0 168 173" fill="none" xmlns="http://www.w3.org/2000/svg">
    <rect width="168" height="173" rx="13" fill="black" />
    <rect width="168" height="173" rx="13" fill="black" fill-opacity="0.74" />
    <rect width="168" height="173" rx="13" fill="url(#paint0_radial_414_881)" fill-opacity="0.3" />
    <rect x="0.5" y="0.5" width="167" height="172" rx="12.5" stroke="white" stroke-opacity="0.15" />
    <rect x="0.5" y="0.5" width="167" height="172" rx="12.5" stroke="black" stroke-opacity="0.2" />
    <line x1="1.73757e-08" y1="128.381" x2="167.686" y2="128.381" stroke="white" stroke-opacity="0.2"
        stroke-width="0.424443" />
    <path
        d="M13.6767 144.956H14.3898V141.747L15.6792 144.956H15.9348L17.2004 141.747V144.956H17.9908V140.707H16.9449L15.8516 143.607L14.7344 140.707H13.6767V144.956ZM19.6888 145.015C20.1642 145.015 20.4375 144.843 20.6396 144.576V144.956H21.3467V142.918C21.3467 142.068 20.8 141.783 20.1048 141.783C19.4095 141.783 18.8332 142.086 18.7737 142.811H19.469C19.5046 142.502 19.6888 142.323 20.0632 142.323C20.4851 142.323 20.6277 142.531 20.6277 142.947V143.108H20.2415C19.3501 143.108 18.6489 143.369 18.6489 144.094C18.6489 144.742 19.1184 145.015 19.6888 145.015ZM19.8612 144.498C19.5046 144.498 19.362 144.326 19.362 144.064C19.362 143.684 19.7126 143.559 20.2593 143.559H20.6277V143.868C20.6277 144.267 20.3009 144.498 19.8612 144.498ZM22.1708 144.956H22.8898V143.126C22.8898 142.632 23.2166 142.383 23.6207 142.383C24.0486 142.383 24.2387 142.597 24.2387 143.066V144.956H24.9577V143.001C24.9577 142.145 24.518 141.783 23.8941 141.783C23.383 141.783 23.0384 142.038 22.8898 142.341V141.848H22.1708V144.956ZM26.6001 145.015C27.0755 145.015 27.3488 144.843 27.5509 144.576V144.956H28.258V142.918C28.258 142.068 27.7113 141.783 27.0161 141.783C26.3208 141.783 25.7444 142.086 25.685 142.811H26.3803C26.4159 142.502 26.6001 142.323 26.9745 142.323C27.3964 142.323 27.539 142.531 27.539 142.947V143.108H27.1527C26.2614 143.108 25.5602 143.369 25.5602 144.094C25.5602 144.742 26.0297 145.015 26.6001 145.015ZM26.7724 144.498C26.4159 144.498 26.2733 144.326 26.2733 144.064C26.2733 143.684 26.6239 143.559 27.1706 143.559H27.539V143.868C27.539 144.267 27.2122 144.498 26.7724 144.498ZM30.4072 146.097C31.3699 146.097 31.9819 145.639 31.9878 144.724V141.848H31.2688V142.323C31.0906 142.014 30.7816 141.783 30.2705 141.783C29.4684 141.783 28.8741 142.436 28.8741 143.31V143.351C28.8741 144.249 29.4743 144.831 30.2527 144.831C30.7103 144.831 31.0965 144.552 31.2688 144.255V144.712C31.2688 145.271 30.9598 145.55 30.4013 145.55C29.9318 145.55 29.6942 145.372 29.6347 145.063H28.9098C28.993 145.657 29.4327 146.097 30.4072 146.097ZM30.431 144.278C29.9675 144.278 29.611 143.922 29.611 143.345V143.298C29.611 142.733 29.92 142.347 30.4548 142.347C30.9717 142.347 31.2926 142.698 31.2926 143.286V143.328C31.2926 143.922 30.9301 144.278 30.431 144.278ZM34.2091 145.015C35.0054 145.015 35.5342 144.659 35.6352 144.005H34.94C34.8865 144.308 34.6607 144.48 34.2269 144.48C33.6921 144.48 33.395 144.148 33.3713 143.559H35.6471V143.351C35.6471 142.24 34.9519 141.783 34.1794 141.783C33.294 141.783 32.6344 142.424 32.6344 143.387V143.435C32.6344 144.415 33.294 145.015 34.2091 145.015ZM33.3831 143.078C33.4545 142.597 33.7456 142.306 34.1794 142.306C34.6251 142.306 34.8984 142.543 34.9341 143.078H33.3831ZM36.2894 144.956H37.0084V143.096C37.0084 142.621 37.3352 142.383 37.6917 142.383C38.0423 142.383 38.2443 142.579 38.2443 143.036V144.956H38.9633V143.096C38.9633 142.621 39.2902 142.383 39.6467 142.383C40.0032 142.383 40.1993 142.579 40.1993 143.036V144.956H40.9183V142.989C40.9183 142.133 40.4548 141.783 39.8844 141.783C39.4981 141.783 39.0703 141.955 38.8326 142.341C38.6781 141.955 38.3572 141.783 37.9532 141.783C37.4956 141.783 37.1569 142.032 37.0084 142.323V141.848H36.2894V144.956ZM43.1108 145.015C43.9071 145.015 44.4359 144.659 44.5369 144.005H43.8417C43.7882 144.308 43.5624 144.48 43.1286 144.48C42.5938 144.48 42.2967 144.148 42.273 143.559H44.5488V143.351C44.5488 142.24 43.8536 141.783 43.0811 141.783C42.1957 141.783 41.5361 142.424 41.5361 143.387V143.435C41.5361 144.415 42.1957 145.015 43.1108 145.015ZM42.2848 143.078C42.3562 142.597 42.6473 142.306 43.0811 142.306C43.5268 142.306 43.8001 142.543 43.8358 143.078H42.2848ZM45.1911 144.956H45.9101V143.126C45.9101 142.632 46.2369 142.383 46.6409 142.383C47.0688 142.383 47.2589 142.597 47.2589 143.066V144.956H47.9779V143.001C47.9779 142.145 47.5382 141.783 46.9143 141.783C46.4033 141.783 46.0586 142.038 45.9101 142.341V141.848H45.1911V144.956ZM49.864 145.009C50.0839 145.009 50.2384 144.974 50.3513 144.932V144.362C50.2502 144.403 50.1433 144.421 50.0007 144.421C49.7749 144.421 49.6441 144.296 49.6441 144.023V142.389H50.3275V141.848H49.6441V141.165H48.9251V141.848H48.5092V142.389H48.9251V144.088C48.9251 144.677 49.246 145.009 49.864 145.009ZM52.5405 144.956H53.2595V142.389H53.9666V141.848H53.2595V141.402C53.2595 141.135 53.3783 140.945 53.6695 140.945C53.8002 140.945 53.9131 140.969 53.9963 140.998V140.44C53.8656 140.398 53.7586 140.38 53.5863 140.38C52.9208 140.38 52.5405 140.749 52.5405 141.432V141.848H52.1186V142.389H52.5405V144.956ZM55.8192 145.015C56.6155 145.015 57.1443 144.659 57.2454 144.005H56.5501C56.4966 144.308 56.2708 144.48 55.8371 144.48C55.3023 144.48 55.0052 144.148 54.9814 143.559H57.2573V143.351C57.2573 142.24 56.562 141.783 55.7895 141.783C54.9041 141.783 54.2446 142.424 54.2446 143.387V143.435C54.2446 144.415 54.9041 145.015 55.8192 145.015ZM54.9933 143.078C55.0646 142.597 55.3557 142.306 55.7895 142.306C56.2352 142.306 56.5085 142.543 56.5442 143.078H54.9933ZM59.2662 145.015C60.0624 145.015 60.5913 144.659 60.6923 144.005H59.9971C59.9436 144.308 59.7178 144.48 59.284 144.48C58.7492 144.48 58.4521 144.148 58.4283 143.559H60.7042V143.351C60.7042 142.24 60.009 141.783 59.2365 141.783C58.3511 141.783 57.6915 142.424 57.6915 143.387V143.435C57.6915 144.415 58.3511 145.015 59.2662 145.015ZM58.4402 143.078C58.5115 142.597 58.8027 142.306 59.2365 142.306C59.6821 142.306 59.9555 142.543 59.9911 143.078H58.4402ZM61.798 144.997C62.0654 144.997 62.2734 144.795 62.2734 144.534C62.2734 144.272 62.0654 144.064 61.798 144.064C61.5366 144.064 61.3286 144.272 61.3286 144.534C61.3286 144.795 61.5366 144.997 61.798 144.997ZM61.798 143.262C62.0654 143.262 62.2734 143.054 62.2734 142.793C62.2734 142.531 62.0654 142.329 61.798 142.329C61.5366 142.329 61.3286 142.531 61.3286 142.793C61.3286 143.054 61.5366 143.262 61.798 143.262Z"
        fill="white" fill-opacity="0.55" />
    <path
        d="M13.6767 157.265H14.467V155.648H15.0612C15.9704 155.648 16.6181 155.25 16.6181 154.353V154.329C16.6181 153.438 15.9942 153.016 15.0434 153.016H13.6767V157.265ZM14.467 155.078V153.628H15.0434C15.5485 153.628 15.8456 153.824 15.8456 154.329V154.353C15.8456 154.822 15.5663 155.078 15.0434 155.078H14.467ZM18.518 157.324C19.3142 157.324 19.8431 156.968 19.9441 156.314H19.2489C19.1954 156.617 18.9696 156.789 18.5358 156.789C18.001 156.789 17.7039 156.457 17.6801 155.868H19.956V155.66C19.956 154.549 19.2608 154.092 18.4883 154.092C17.6029 154.092 16.9433 154.733 16.9433 155.696V155.743C16.9433 156.724 17.6029 157.324 18.518 157.324ZM17.692 155.387C17.7633 154.906 18.0545 154.614 18.4883 154.614C18.9339 154.614 19.2073 154.852 19.2429 155.387H17.692ZM20.5982 157.265H21.3172V155.648C21.3172 154.989 21.6975 154.787 22.3274 154.781V154.109C21.8045 154.115 21.5133 154.347 21.3172 154.739V154.157H20.5982V157.265ZM23.1428 157.265H23.8618V154.698H24.569V154.157H23.8618V153.711C23.8618 153.444 23.9807 153.254 24.2718 153.254C24.4026 153.254 24.5155 153.277 24.5987 153.307V152.749C24.4679 152.707 24.361 152.689 24.1887 152.689C23.5231 152.689 23.1428 153.058 23.1428 153.741V154.157H22.7209V154.698H23.1428V157.265ZM26.4453 156.766C25.8987 156.766 25.5837 156.367 25.5837 155.732V155.684C25.5837 155.042 25.9106 154.656 26.4453 154.656C26.9801 154.656 27.301 155.048 27.301 155.69V155.732C27.301 156.367 26.9801 156.766 26.4453 156.766ZM26.4394 157.324C27.3545 157.324 28.0379 156.694 28.0379 155.726V155.678C28.0379 154.727 27.3545 154.092 26.4453 154.092C25.5302 154.092 24.8469 154.733 24.8469 155.696V155.743C24.8469 156.688 25.5243 157.324 26.4394 157.324ZM28.6875 157.265H29.4065V155.648C29.4065 154.989 29.7868 154.787 30.4167 154.781V154.109C29.8938 154.115 29.6026 154.347 29.4065 154.739V154.157H28.6875V157.265ZM31.0493 157.265H31.7683V155.405C31.7683 154.929 32.0951 154.692 32.4517 154.692C32.8023 154.692 33.0043 154.888 33.0043 155.345V157.265H33.7233V155.405C33.7233 154.929 34.0501 154.692 34.4066 154.692C34.7632 154.692 34.9593 154.888 34.9593 155.345V157.265H35.6783V155.298C35.6783 154.442 35.2148 154.092 34.6443 154.092C34.2581 154.092 33.8303 154.264 33.5926 154.65C33.4381 154.264 33.1172 154.092 32.7131 154.092C32.2556 154.092 31.9169 154.341 31.7683 154.632V154.157H31.0493V157.265ZM37.3181 157.324C37.7935 157.324 38.0669 157.152 38.2689 156.884V157.265H38.976V155.226C38.976 154.377 38.4293 154.092 37.7341 154.092C37.0389 154.092 36.4625 154.395 36.403 155.12H37.0983C37.1339 154.811 37.3181 154.632 37.6925 154.632C38.1144 154.632 38.257 154.84 38.257 155.256V155.417H37.8708C36.9794 155.417 36.2783 155.678 36.2783 156.403C36.2783 157.051 36.7477 157.324 37.3181 157.324ZM37.4905 156.807C37.1339 156.807 36.9913 156.635 36.9913 156.373C36.9913 155.993 37.3419 155.868 37.8886 155.868H38.257V156.177C38.257 156.575 37.9302 156.807 37.4905 156.807ZM39.8001 157.265H40.5191V155.434C40.5191 154.941 40.846 154.692 41.25 154.692C41.6779 154.692 41.868 154.906 41.868 155.375V157.265H42.587V155.31C42.587 154.454 42.1473 154.092 41.5234 154.092C41.0123 154.092 40.6677 154.347 40.5191 154.65V154.157H39.8001V157.265ZM44.7761 157.324C45.6199 157.324 46.1607 156.819 46.2141 156.106H45.5545C45.513 156.546 45.1861 156.771 44.8058 156.771C44.277 156.771 43.9442 156.415 43.9442 155.738V155.69C43.9442 155.048 44.2948 154.668 44.788 154.668C45.1683 154.668 45.4416 154.84 45.5011 155.256H46.1963C46.1131 154.401 45.4654 154.092 44.7761 154.092C43.9086 154.092 43.2074 154.715 43.2074 155.702V155.749C43.2074 156.742 43.8848 157.324 44.7761 157.324ZM48.2 157.324C48.9962 157.324 49.5251 156.968 49.6261 156.314H48.9309C48.8774 156.617 48.6516 156.789 48.2178 156.789C47.683 156.789 47.3859 156.457 47.3621 155.868H49.638V155.66C49.638 154.549 48.9428 154.092 48.1703 154.092C47.2849 154.092 46.6253 154.733 46.6253 155.696V155.743C46.6253 156.724 47.2849 157.324 48.2 157.324ZM47.374 155.387C47.4453 154.906 47.7365 154.614 48.1703 154.614C48.6159 154.614 48.8893 154.852 48.9249 155.387H47.374ZM51.8209 157.265H52.5399V154.698H53.2471V154.157H52.5399V153.711C52.5399 153.444 52.6588 153.254 52.9499 153.254C53.0807 153.254 53.1936 153.277 53.2768 153.307V152.749C53.146 152.707 53.0391 152.689 52.8668 152.689C52.2012 152.689 51.8209 153.058 51.8209 153.741V154.157H51.399V154.698H51.8209V157.265ZM55.0997 157.324C55.8959 157.324 56.4248 156.968 56.5258 156.314H55.8306C55.7771 156.617 55.5513 156.789 55.1175 156.789C54.5827 156.789 54.2856 156.457 54.2618 155.868H56.5377V155.66C56.5377 154.549 55.8425 154.092 55.07 154.092C54.1846 154.092 53.525 154.733 53.525 155.696V155.743C53.525 156.724 54.1846 157.324 55.0997 157.324ZM54.2737 155.387C54.345 154.906 54.6362 154.614 55.07 154.614C55.5156 154.614 55.789 154.852 55.8246 155.387H54.2737ZM58.5466 157.324C59.3429 157.324 59.8717 156.968 59.9727 156.314H59.2775C59.224 156.617 58.9982 156.789 58.5644 156.789C58.0296 156.789 57.7325 156.457 57.7088 155.868H59.9846V155.66C59.9846 154.549 59.2894 154.092 58.5169 154.092C57.6315 154.092 56.9719 154.733 56.9719 155.696V155.743C56.9719 156.724 57.6315 157.324 58.5466 157.324ZM57.7207 155.387C57.792 154.906 58.0831 154.614 58.5169 154.614C58.9626 154.614 59.2359 154.852 59.2716 155.387H57.7207ZM61.0785 157.306C61.3459 157.306 61.5538 157.104 61.5538 156.843C61.5538 156.581 61.3459 156.373 61.0785 156.373C60.817 156.373 60.609 156.581 60.609 156.843C60.609 157.104 60.817 157.306 61.0785 157.306ZM61.0785 155.571C61.3459 155.571 61.5538 155.363 61.5538 155.102C61.5538 154.84 61.3459 154.638 61.0785 154.638C60.817 154.638 60.609 154.84 60.609 155.102C60.609 155.363 60.817 155.571 61.0785 155.571Z"
        fill="white" fill-opacity="0.55" />
    <path
        d="M146.319 144.385C145.683 144.385 145.315 143.898 145.315 142.935V142.722C145.315 141.777 145.665 141.266 146.307 141.266C146.943 141.266 147.288 141.812 147.288 142.716V142.924C147.288 143.886 146.973 144.385 146.319 144.385ZM146.301 145.015C147.412 145.015 148.078 144.201 148.078 142.924V142.71C148.078 141.432 147.377 140.648 146.301 140.648C145.232 140.648 144.519 141.438 144.519 142.727V142.941C144.519 144.219 145.22 145.015 146.301 145.015ZM149.571 142.246C149.292 142.246 149.114 142.056 149.114 141.694C149.114 141.337 149.292 141.141 149.571 141.141C149.85 141.141 150.023 141.349 150.023 141.694C150.023 142.044 149.85 142.246 149.571 142.246ZM149.565 142.727C150.148 142.727 150.599 142.288 150.599 141.688C150.599 141.093 150.142 140.666 149.571 140.666C149.001 140.666 148.531 141.105 148.531 141.699C148.531 142.288 148.983 142.727 149.565 142.727ZM149.114 144.956H149.619L152.352 140.707H151.853L149.114 144.956ZM151.9 144.534C151.621 144.534 151.443 144.344 151.443 143.981C151.443 143.625 151.621 143.429 151.9 143.429C152.18 143.429 152.352 143.637 152.352 143.981C152.352 144.332 152.18 144.534 151.9 144.534ZM151.895 145.015C152.477 145.015 152.934 144.576 152.934 143.975C152.934 143.381 152.471 142.953 151.9 142.953C151.33 142.953 150.867 143.393 150.867 143.987C150.867 144.576 151.312 145.015 151.895 145.015Z"
        fill="white" />
    <path
        d="M145.007 157.265H148.079V156.653H146.272L147.217 155.732C147.722 155.244 148.049 154.763 148.049 154.21C148.049 153.462 147.526 152.957 146.647 152.957C145.75 152.957 145.191 153.491 145.138 154.418H145.862C145.934 153.818 146.201 153.575 146.623 153.575C147.033 153.575 147.259 153.824 147.259 154.222C147.259 154.626 147.015 155.001 146.611 155.429L145.007 157.122V157.265ZM149.571 154.555C149.292 154.555 149.114 154.365 149.114 154.002C149.114 153.646 149.292 153.45 149.571 153.45C149.85 153.45 150.023 153.658 150.023 154.002C150.023 154.353 149.85 154.555 149.571 154.555ZM149.565 155.036C150.148 155.036 150.599 154.597 150.599 153.996C150.599 153.402 150.142 152.974 149.571 152.974C149.001 152.974 148.531 153.414 148.531 154.008C148.531 154.597 148.983 155.036 149.565 155.036ZM149.114 157.265H149.619L152.352 153.016H151.853L149.114 157.265ZM151.9 156.843C151.621 156.843 151.443 156.653 151.443 156.29C151.443 155.934 151.621 155.738 151.9 155.738C152.18 155.738 152.352 155.945 152.352 156.29C152.352 156.641 152.18 156.843 151.9 156.843ZM151.895 157.324C152.477 157.324 152.934 156.884 152.934 156.284C152.934 155.69 152.471 155.262 151.9 155.262C151.33 155.262 150.867 155.702 150.867 156.296C150.867 156.884 151.312 157.324 151.895 157.324Z"
        fill="white" />
    <line x1="1.73757e-08" y1="46.2414" x2="167.686" y2="46.2414" stroke="white" stroke-opacity="0.2"
        stroke-width="0.424443" />
    <path
        d="M37.0504 16.5437L35.826 25.457H33.6731L32.7098 17.9364L31.7465 25.457H29.5936L28.3692 16.5437H29.7967L30.702 23.8554L31.6421 16.5437H33.7775L34.7176 23.8554L35.6229 16.5437H37.0504ZM38.71 18.3252C38.4547 18.3252 38.2419 18.2401 38.0717 18.0699C37.9054 17.8997 37.8222 17.6888 37.8222 17.4374C37.8222 17.182 37.9054 16.9693 38.0717 16.7991C38.2419 16.6288 38.4547 16.5437 38.71 16.5437C38.9692 16.5437 39.182 16.6288 39.3484 16.7991C39.5186 16.9693 39.6037 17.182 39.6037 17.4374C39.6037 17.6888 39.5186 17.8997 39.3484 18.0699C39.182 18.2401 38.9692 18.3252 38.71 18.3252ZM39.4238 25.457H37.9963V19.5148H39.4238V25.457ZM42.8707 23.426C42.8707 23.7162 42.9423 23.9289 43.0854 24.0643C43.2286 24.1997 43.453 24.2674 43.7586 24.2674C43.9907 24.2674 44.2093 24.2326 44.4143 24.163V25.4338C44.128 25.5267 43.8147 25.5731 43.4742 25.5731C43.1647 25.5731 42.892 25.5383 42.656 25.4686C42.42 25.4029 42.2073 25.2945 42.0177 25.1437C41.832 24.9928 41.6889 24.782 41.5883 24.5112C41.4916 24.2365 41.4432 23.9057 41.4432 23.5189V20.7625H40.4915V19.5148H41.4432V17.7333H42.8707V19.5148H44.4143V20.7625H42.8707V23.426ZM47.1417 22.19V25.457H45.7142V16.5437H47.1417V20.3679C47.3235 20.0545 47.5614 19.8146 47.8555 19.6483C48.1495 19.4819 48.4822 19.3988 48.8536 19.3988C49.5112 19.3988 50.0432 19.6154 50.4494 20.0487C50.8594 20.4781 51.0645 21.0971 51.0645 21.9056V25.457H49.637V22.19C49.637 21.6948 49.5267 21.3137 49.3062 21.0468C49.0857 20.7799 48.7801 20.6464 48.3893 20.6464C47.9986 20.6464 47.693 20.7799 47.4725 21.0468C47.2519 21.3137 47.1417 21.6948 47.1417 22.19ZM56.8848 25.457V24.7085C56.6604 24.9831 56.3954 25.1959 56.0898 25.3468C55.7842 25.4977 55.4554 25.5731 55.1033 25.5731C54.2832 25.5731 53.6023 25.2849 53.0607 24.7085C52.5229 24.1282 52.2541 23.3873 52.2541 22.4859C52.2541 21.5845 52.5229 20.8456 53.0607 20.2692C53.6023 19.6889 54.2832 19.3988 55.1033 19.3988C55.4554 19.3988 55.7842 19.4742 56.0898 19.6251C56.3954 19.776 56.6604 19.9887 56.8848 20.2634V16.5437H58.3123V25.457H56.8848ZM56.4322 21.1977C56.1304 20.8688 55.7474 20.7044 55.2832 20.7044C54.819 20.7044 54.434 20.8708 54.1284 21.2035C53.8267 21.5323 53.6758 21.9598 53.6758 22.4859C53.6758 23.0121 53.8267 23.4415 54.1284 23.7742C54.434 24.103 54.819 24.2674 55.2832 24.2674C55.7474 24.2674 56.1304 24.103 56.4322 23.7742C56.7339 23.4453 56.8848 23.0159 56.8848 22.4859C56.8848 21.9559 56.7339 21.5265 56.4322 21.1977ZM61.4053 22.4279V25.457H59.9778V19.5148H61.4053V20.4781C61.8463 19.7586 62.5117 19.3988 63.4015 19.3988C63.5524 19.3988 63.651 19.4065 63.6975 19.422V20.9772C63.5195 20.9153 63.3145 20.8843 63.0823 20.8843C62.5523 20.8843 62.1403 21.0178 61.8463 21.2847C61.5523 21.5517 61.4053 21.9327 61.4053 22.4279ZM68.305 25.457V24.575C67.9413 25.2404 67.3108 25.5731 66.4132 25.5731C66.0573 25.5731 65.7324 25.517 65.4383 25.4048C65.1482 25.2926 64.9045 25.105 64.7072 24.8419C64.5137 24.575 64.417 24.25 64.417 23.867C64.417 23.5614 64.4712 23.2964 64.5795 23.072C64.6917 22.8476 64.8387 22.6736 65.0205 22.5498C65.2024 22.426 65.4093 22.3215 65.6414 22.2364C65.8736 22.1474 66.1095 22.0855 66.3494 22.0507C66.5893 22.0159 66.8252 21.9772 67.0574 21.9347C67.2895 21.8921 67.4964 21.8515 67.6783 21.8128C67.8601 21.7702 68.0052 21.7025 68.1135 21.6097C68.2257 21.5168 68.2818 21.4008 68.2818 21.2615C68.2818 21.0371 68.1773 20.8592 67.9684 20.7276C67.7634 20.5922 67.5022 20.5245 67.185 20.5245C66.8485 20.5245 66.5796 20.6116 66.3784 20.7857C66.1811 20.9598 66.0825 21.2093 66.0825 21.5342H64.5969C64.5969 21.1629 64.6685 20.836 64.8116 20.5536C64.9548 20.2711 65.1501 20.0487 65.3977 19.8862C65.6453 19.7199 65.918 19.598 66.2159 19.5206C66.5177 19.4394 66.8407 19.3988 67.185 19.3988C67.5255 19.3988 67.8408 19.4355 68.1309 19.509C68.4249 19.5787 68.6918 19.687 68.9317 19.834C69.1716 19.981 69.3611 20.1822 69.5004 20.4375C69.6397 20.689 69.7093 20.983 69.7093 21.3195V25.457H68.305ZM65.8794 23.7684C65.8794 23.9695 65.9548 24.1243 66.1057 24.2326C66.2604 24.3371 66.4616 24.3893 66.7092 24.3893C67.1502 24.3893 67.5255 24.2674 67.8349 24.0237C68.1483 23.78 68.305 23.4415 68.305 23.0082V22.7355C68.1425 22.8051 67.9394 22.867 67.6957 22.9211C67.452 22.9714 67.2314 23.0159 67.0341 23.0546C66.8368 23.0894 66.6453 23.1339 66.4597 23.1881C66.2778 23.2422 66.1347 23.3177 66.0302 23.4144C65.9297 23.5072 65.8794 23.6252 65.8794 23.7684ZM79.3306 19.5148L77.845 25.457H76.0287L74.9668 20.8321L73.899 25.457H72.0827L70.5971 19.5148H71.9608L73.0054 24.1282L74.0557 19.5148H75.872L76.9165 24.1282L77.9611 19.5148H79.3306ZM84.7447 18.6618V19.5148H86.2883V20.7625H84.7447V25.457H83.3172V20.7625H82.3655V19.5148H83.3172V18.6212C83.3172 17.9442 83.5319 17.4103 83.9613 17.0196C84.3907 16.625 84.9401 16.4277 85.6093 16.4277C85.9227 16.4277 86.1877 16.4586 86.4043 16.5205V17.8262C86.1993 17.7643 85.9788 17.7333 85.7428 17.7333C85.4294 17.7333 85.1838 17.8146 85.0058 17.9771C84.8317 18.1357 84.7447 18.3639 84.7447 18.6618ZM88.8996 22.4279V25.457H87.4721V19.5148H88.8996V20.4781C89.3406 19.7586 90.006 19.3988 90.8958 19.3988C91.0467 19.3988 91.1453 19.4065 91.1918 19.422V20.9772C91.0138 20.9153 90.8088 20.8843 90.5766 20.8843C90.0466 20.8843 89.6346 21.0178 89.3406 21.2847C89.0466 21.5517 88.8996 21.9327 88.8996 22.4279ZM96.9367 24.7085C96.3641 25.2849 95.6407 25.5731 94.7664 25.5731C93.8921 25.5731 93.1686 25.2849 92.5961 24.7085C92.0235 24.1282 91.7372 23.3873 91.7372 22.4859C91.7372 21.5845 92.0235 20.8456 92.5961 20.2692C93.1686 19.6889 93.8921 19.3988 94.7664 19.3988C95.6407 19.3988 96.3641 19.6889 96.9367 20.2692C97.5092 20.8456 97.7955 21.5845 97.7955 22.4859C97.7955 23.3873 97.5092 24.1282 96.9367 24.7085ZM93.6116 23.7742C93.9172 24.103 94.3021 24.2674 94.7664 24.2674C95.2306 24.2674 95.6136 24.103 95.9153 23.7742C96.2171 23.4453 96.368 23.0159 96.368 22.4859C96.368 21.9559 96.2171 21.5265 95.9153 21.1977C95.6136 20.8688 95.2306 20.7044 94.7664 20.7044C94.3021 20.7044 93.9172 20.8708 93.6116 21.2035C93.3098 21.5323 93.1589 21.9598 93.1589 22.4859C93.1589 23.0121 93.3098 23.4415 93.6116 23.7742ZM100.471 22.0681V25.457H99.0431V19.5148H100.471V20.2866C100.641 20.0042 100.863 19.7856 101.138 19.6309C101.417 19.4761 101.726 19.3988 102.066 19.3988C102.477 19.3988 102.842 19.4916 103.163 19.6773C103.484 19.863 103.728 20.1338 103.894 20.4897C104.068 20.1415 104.318 19.8727 104.643 19.6831C104.968 19.4936 105.335 19.3988 105.746 19.3988C106.372 19.3988 106.877 19.6038 107.26 20.0139C107.647 20.424 107.84 21.0139 107.84 21.7838V25.457H106.413V22.0681C106.413 21.6078 106.314 21.2557 106.117 21.012C105.92 20.7683 105.643 20.6464 105.287 20.6464C104.931 20.6464 104.653 20.7683 104.451 21.012C104.254 21.2557 104.156 21.6078 104.156 22.0681V25.457H102.728V22.0681C102.728 21.6078 102.629 21.2557 102.432 21.012C102.235 20.7683 101.958 20.6464 101.602 20.6464C101.246 20.6464 100.968 20.7683 100.767 21.012C100.569 21.2557 100.471 21.6078 100.471 22.0681ZM116.934 19.5148L115.088 25.457H113.069L111.223 19.5148H112.709L114.079 24.2326L115.448 19.5148H116.934ZM121.413 25.457V24.575C121.05 25.2404 120.419 25.5731 119.522 25.5731C119.166 25.5731 118.841 25.517 118.547 25.4048C118.257 25.2926 118.013 25.105 117.816 24.8419C117.622 24.575 117.525 24.25 117.525 23.867C117.525 23.5614 117.58 23.2964 117.688 23.072C117.8 22.8476 117.947 22.6736 118.129 22.5498C118.311 22.426 118.518 22.3215 118.75 22.2364C118.982 22.1474 119.218 22.0855 119.458 22.0507C119.698 22.0159 119.934 21.9772 120.166 21.9347C120.398 21.8921 120.605 21.8515 120.787 21.8128C120.969 21.7702 121.114 21.7025 121.222 21.6097C121.334 21.5168 121.39 21.4008 121.39 21.2615C121.39 21.0371 121.286 20.8592 121.077 20.7276C120.872 20.5922 120.611 20.5245 120.293 20.5245C119.957 20.5245 119.688 20.6116 119.487 20.7857C119.29 20.9598 119.191 21.2093 119.191 21.5342H117.705C117.705 21.1629 117.777 20.836 117.92 20.5536C118.063 20.2711 118.259 20.0487 118.506 19.8862C118.754 19.7199 119.026 19.598 119.324 19.5206C119.626 19.4394 119.949 19.3988 120.293 19.3988C120.634 19.3988 120.949 19.4355 121.239 19.509C121.533 19.5787 121.8 19.687 122.04 19.834C122.28 19.981 122.47 20.1822 122.609 20.4375C122.748 20.689 122.818 20.983 122.818 21.3195V25.457H121.413ZM118.988 23.7684C118.988 23.9695 119.063 24.1243 119.214 24.2326C119.369 24.3371 119.57 24.3893 119.818 24.3893C120.259 24.3893 120.634 24.2674 120.943 24.0237C121.257 23.78 121.413 23.4415 121.413 23.0082V22.7355C121.251 22.8051 121.048 22.867 120.804 22.9211C120.56 22.9714 120.34 23.0159 120.143 23.0546C119.945 23.0894 119.754 23.1339 119.568 23.1881C119.386 23.2422 119.243 23.3177 119.139 23.4144C119.038 23.5072 118.988 23.6252 118.988 23.7684ZM128.162 25.457V24.6156C127.984 24.9212 127.75 25.1572 127.46 25.3236C127.17 25.4899 126.845 25.5731 126.485 25.5731C125.835 25.5731 125.307 25.3584 124.901 24.929C124.499 24.4957 124.297 23.8748 124.297 23.0662V19.5148H125.725V22.7819C125.725 23.2771 125.833 23.6581 126.05 23.9251C126.267 24.192 126.566 24.3255 126.949 24.3255C127.329 24.3255 127.625 24.192 127.837 23.9251C128.054 23.6581 128.162 23.2771 128.162 22.7819V19.5148H129.584V25.457H128.162ZM132.677 25.457H131.249V16.5437H132.677V25.457ZM136.124 23.426C136.124 23.7162 136.195 23.9289 136.339 24.0643C136.482 24.1997 136.706 24.2674 137.012 24.2674C137.244 24.2674 137.462 24.2326 137.667 24.163V25.4338C137.381 25.5267 137.068 25.5731 136.727 25.5731C136.418 25.5731 136.145 25.5383 135.909 25.4686C135.673 25.4029 135.46 25.2945 135.271 25.1437C135.085 24.9928 134.942 24.782 134.841 24.5112C134.745 24.2365 134.696 23.9057 134.696 23.5189V20.7625H133.745V19.5148H134.696V17.7333H136.124V19.5148H137.667V20.7625H136.124V23.426Z"
        fill="white" />
    <path
        d="M72.1133 35.2837V31.3856H72.7721C74.1099 31.3856 74.6532 32.1734 74.6532 33.2939V33.3482C74.6532 34.5367 74.0284 35.2837 72.7789 35.2837H72.1133ZM71.5225 35.7659H72.7924C74.4902 35.7659 75.2644 34.6997 75.2644 33.355V33.2939C75.2644 31.9425 74.4766 30.9102 72.806 30.9102H71.5225V35.7659ZM77.6636 35.827C78.465 35.827 79.0558 35.4535 79.178 34.7404H78.6144C78.5397 35.1547 78.2205 35.3584 77.6704 35.3584C76.9438 35.3584 76.5567 34.9102 76.5295 34.1021H79.2052V33.9187C79.2052 32.6488 78.431 32.153 77.6093 32.153C76.6314 32.153 75.9455 32.9 75.9455 33.973V34.0274C75.9455 35.1207 76.6585 35.827 77.6636 35.827ZM76.5499 33.647C76.645 33.0155 77.032 32.6216 77.6093 32.6216C78.1933 32.6216 78.5736 32.9136 78.628 33.647H76.5499ZM80.1923 35.7659H80.756V32.6895H81.6253V32.2141H80.756V31.5758C80.756 31.2158 80.8986 30.9646 81.2585 30.9646C81.4147 30.9646 81.5234 30.9849 81.6253 31.0257V30.5503C81.5166 30.5096 81.4215 30.496 81.2382 30.496C80.5387 30.496 80.1923 30.917 80.1923 31.6369V32.2141H79.683V32.6895H80.1923V35.7659ZM82.3319 35.7659H82.8956V32.2141H82.3319V35.7659ZM82.6035 31.4739C82.8073 31.4739 82.9771 31.3041 82.9771 31.1004C82.9771 30.8967 82.8073 30.7269 82.6035 30.7269C82.3998 30.7269 82.23 30.8967 82.23 31.1004C82.23 31.3041 82.3998 31.4739 82.6035 31.4739ZM85.8601 35.7659H86.4237V32.2141H85.8601V35.7659ZM86.1317 31.4739C86.3355 31.4739 86.5052 31.3041 86.5052 31.1004C86.5052 30.8967 86.3355 30.7269 86.1317 30.7269C85.928 30.7269 85.7582 30.8967 85.7582 31.1004C85.7582 31.3041 85.928 31.4739 86.1317 31.4739ZM87.5774 35.7659H88.1411V33.6131C88.1411 32.9747 88.6097 32.642 89.1326 32.642C89.703 32.642 89.9679 32.9204 89.9679 33.5452V35.7659H90.5316V33.5859C90.5316 32.5537 90.0154 32.153 89.282 32.153C88.698 32.153 88.3041 32.445 88.1411 32.7778V32.2141H87.5774V35.7659ZM92.974 35.827C93.4901 35.827 93.9859 35.501 94.1896 35.1547V35.7659H94.7533V30.5164H94.1896V32.7846C93.9859 32.4382 93.6192 32.153 93.0283 32.153C92.0504 32.153 91.3713 32.9204 91.3713 34.007V34.0613C91.3713 35.1683 92.0436 35.827 92.974 35.827ZM93.0351 35.3584C92.4375 35.3584 91.9554 34.9306 91.9554 34.0341V33.9798C91.9554 33.1173 92.3764 32.6216 93.0827 32.6216C93.7754 32.6216 94.21 33.0494 94.21 33.9594V34.0138C94.21 34.9238 93.6939 35.3584 93.0351 35.3584ZM97.3472 35.827C98.1485 35.827 98.7393 35.4535 98.8616 34.7404H98.2979C98.2232 35.1547 97.904 35.3584 97.354 35.3584C96.6273 35.3584 96.2402 34.9102 96.213 34.1021H98.8887V33.9187C98.8887 32.6488 98.1146 32.153 97.2928 32.153C96.3149 32.153 95.629 32.9 95.629 33.973V34.0274C95.629 35.1207 96.3421 35.827 97.3472 35.827ZM96.2334 33.647C96.3285 33.0155 96.7156 32.6216 97.2928 32.6216C97.8769 32.6216 98.2572 32.9136 98.3115 33.647H96.2334ZM99.2739 35.7659H99.8783L100.856 34.3329L101.814 35.7659H102.479L101.182 33.8983L102.357 32.2141H101.746L100.883 33.5044L100.014 32.2141H99.3554L100.544 33.9391L99.2739 35.7659Z"
        fill="white" fill-opacity="0.55" />
    <rect x="62.1738" y="29.3416" width="7.63997" height="7.63997" rx="3.81999" fill="url(#paint1_linear_414_881)" />
    <g filter="url(#filter0_d_414_881)">
        <path
            d="M66.5892 31.1632C66.5698 31.1662 66.553 31.1831 66.5494 31.1876C66.5477 31.1898 66.5439 31.192 66.5428 31.1945L64.6695 33.3536C64.6609 33.3627 64.6562 33.3748 64.6562 33.3885C64.6562 33.416 64.6765 33.4374 64.7026 33.4374H65.6558L65.2586 35.0698V35.0803C65.258 35.0834 65.2554 35.0873 65.2554 35.0907C65.2554 35.1182 65.2756 35.1396 65.3017 35.1396C65.3163 35.1396 65.3294 35.1331 65.3381 35.1222L67.2279 32.8513C67.2365 32.8423 67.2411 32.8302 67.2411 32.8165C67.2411 32.789 67.2209 32.7676 67.1948 32.7676H66.1721L66.6289 31.2364C66.632 31.2298 66.6321 31.2234 66.6321 31.2155C66.6321 31.188 66.6308 31.1759 66.609 31.1667C66.6025 31.1638 66.5956 31.1621 66.5892 31.1632Z"
            fill="#0077e4" />
    </g>
    <path
        d="M150.1 21.4332L153.406 18.1277C153.621 17.9126 153.621 17.565 153.406 17.35C153.191 17.135 152.843 17.135 152.628 17.35L149.323 20.6555L146.017 17.35C145.802 17.135 145.454 17.135 145.239 17.35C145.024 17.565 145.024 17.9126 145.239 18.1277L148.545 21.4332L145.239 24.7388C145.024 24.9538 145.024 25.3014 145.239 25.5164C145.347 25.6237 145.488 25.6776 145.628 25.6776C145.769 25.6776 145.91 25.6237 146.017 25.5164L149.323 22.2109L152.628 25.5164C152.735 25.6237 152.876 25.6776 153.017 25.6776C153.158 25.6776 153.299 25.6237 153.406 25.5164C153.621 25.3014 153.621 24.9538 153.406 24.7388L150.1 21.4332Z"
        fill="white" fill-opacity="0.55" />
    <path
        d="M77.6526 62.7729H78.5677L80.0057 58.5243H79.2629L78.1517 61.9708L77.0465 58.5243H76.2205L77.6526 62.7729ZM81.1151 62.8324C81.5905 62.8324 81.8638 62.66 82.0658 62.3926V62.7729H82.773V60.7348C82.773 59.885 82.2263 59.5998 81.531 59.5998C80.8358 59.5998 80.2594 59.9029 80.2 60.6278H80.8952C80.9309 60.3188 81.1151 60.1406 81.4894 60.1406C81.9113 60.1406 82.0539 60.3485 82.0539 60.7645V60.9249H81.6677C80.7764 60.9249 80.0752 61.1864 80.0752 61.9113C80.0752 62.559 80.5446 62.8324 81.1151 62.8324ZM81.2874 62.3154C80.9309 62.3154 80.7883 62.1431 80.7883 61.8816C80.7883 61.5013 81.1388 61.3765 81.6855 61.3765H82.0539V61.6855C82.0539 62.0837 81.7271 62.3154 81.2874 62.3154ZM84.6369 62.8324C85.142 62.8324 85.4689 62.5887 85.6234 62.2857V62.7729H86.3424V59.6652H85.6234V61.5132C85.6234 62.0064 85.2846 62.256 84.8984 62.256C84.4824 62.256 84.2864 62.0421 84.2864 61.5726V59.6652H83.5673V61.6558C83.5673 62.4818 84.0249 62.8324 84.6369 62.8324ZM87.2127 62.7729H87.9317V58.2272H87.2127V62.7729ZM89.8658 62.8264C90.0857 62.8264 90.2402 62.7908 90.3531 62.7492V62.1787C90.252 62.2203 90.1451 62.2382 90.0025 62.2382C89.7767 62.2382 89.6459 62.1134 89.6459 61.84V60.2059H90.3293V59.6652H89.6459V58.9818H88.9269V59.6652H88.511V60.2059H88.9269V61.9054C88.9269 62.4937 89.2478 62.8264 89.8658 62.8264ZM94.1526 62.8324C94.9548 62.8324 95.5312 62.2263 95.5312 61.228V61.1804C95.5312 60.1762 94.9311 59.5998 94.1526 59.5998C93.6951 59.5998 93.3088 59.8672 93.1365 60.1643V58.2272H92.4175V62.7729H93.1365V62.2738C93.3029 62.5887 93.6594 62.8324 94.1526 62.8324ZM93.9744 62.2619C93.4515 62.2619 93.1128 61.9351 93.1128 61.2399V61.1923C93.1128 60.503 93.4693 60.1643 93.9684 60.1643C94.4379 60.1643 94.7944 60.503 94.7944 61.1923V61.2399C94.7944 61.9054 94.5032 62.2619 93.9744 62.2619ZM96.9919 62.8324C97.4673 62.8324 97.7406 62.66 97.9427 62.3926V62.7729H98.6498V60.7348C98.6498 59.885 98.1031 59.5998 97.4079 59.5998C96.7126 59.5998 96.1362 59.9029 96.0768 60.6278H96.772C96.8077 60.3188 96.9919 60.1406 97.3663 60.1406C97.7882 60.1406 97.9308 60.3485 97.9308 60.7645V60.9249H97.5445C96.6532 60.9249 95.952 61.1864 95.952 61.9113C95.952 62.559 96.4214 62.8324 96.9919 62.8324ZM97.1642 62.3154C96.8077 62.3154 96.6651 62.1431 96.6651 61.8816C96.6651 61.5013 97.0157 61.3765 97.5624 61.3765H97.9308V61.6855C97.9308 62.0837 97.6039 62.3154 97.1642 62.3154ZM99.4917 62.7729H100.211V58.2272H99.4917V62.7729ZM101.901 62.8324C102.377 62.8324 102.65 62.66 102.852 62.3926V62.7729H103.559V60.7348C103.559 59.885 103.012 59.5998 102.317 59.5998C101.622 59.5998 101.046 59.9029 100.986 60.6278H101.681C101.717 60.3188 101.901 60.1406 102.276 60.1406C102.697 60.1406 102.84 60.3485 102.84 60.7645V60.9249H102.454C101.562 60.9249 100.861 61.1864 100.861 61.9113C100.861 62.559 101.331 62.8324 101.901 62.8324ZM102.074 62.3154C101.717 62.3154 101.574 62.1431 101.574 61.8816C101.574 61.5013 101.925 61.3765 102.472 61.3765H102.84V61.6855C102.84 62.0837 102.513 62.3154 102.074 62.3154ZM104.383 62.7729H105.102V60.9428C105.102 60.4495 105.429 60.2 105.833 60.2C106.261 60.2 106.451 60.4139 106.451 60.8833V62.7729H107.17V60.818C107.17 59.9623 106.73 59.5998 106.106 59.5998C105.595 59.5998 105.251 59.8553 105.102 60.1584V59.6652H104.383V62.7729ZM109.359 62.8324C110.203 62.8324 110.744 62.3273 110.797 61.6142H110.138C110.096 62.0539 109.769 62.2797 109.389 62.2797C108.86 62.2797 108.527 61.9232 108.527 61.2458V61.1983C108.527 60.5565 108.878 60.1762 109.371 60.1762C109.751 60.1762 110.025 60.3485 110.084 60.7645H110.779C110.696 59.9088 110.048 59.5998 109.359 59.5998C108.492 59.5998 107.79 60.2237 107.79 61.2101V61.2577C107.79 62.25 108.468 62.8324 109.359 62.8324ZM112.783 62.8324C113.579 62.8324 114.108 62.4758 114.209 61.8222H113.514C113.46 62.1252 113.235 62.2976 112.801 62.2976C112.266 62.2976 111.969 61.9648 111.945 61.3765H114.221V61.1686C114.221 60.0574 113.526 59.5998 112.753 59.5998C111.868 59.5998 111.208 60.2416 111.208 61.2042V61.2517C111.208 62.2322 111.868 62.8324 112.783 62.8324ZM111.957 60.8952C112.028 60.4139 112.32 60.1227 112.753 60.1227C113.199 60.1227 113.472 60.3604 113.508 60.8952H111.957ZM115.315 62.8145C115.582 62.8145 115.79 62.6125 115.79 62.3511C115.79 62.0896 115.582 61.8816 115.315 61.8816C115.053 61.8816 114.845 62.0896 114.845 62.3511C114.845 62.6125 115.053 62.8145 115.315 62.8145ZM115.315 61.0794C115.582 61.0794 115.79 60.8714 115.79 60.61C115.79 60.3485 115.582 60.1465 115.315 60.1465C115.053 60.1465 114.845 60.3485 114.845 60.61C114.845 60.8714 115.053 61.0794 115.315 61.0794ZM117.705 62.7729H120.777V62.1609H118.97L119.915 61.2399C120.42 60.7526 120.747 60.2713 120.747 59.7187C120.747 58.9699 120.224 58.4649 119.345 58.4649C118.447 58.4649 117.889 58.9996 117.835 59.9266H118.56C118.632 59.3265 118.899 59.0828 119.321 59.0828C119.731 59.0828 119.957 59.3324 119.957 59.7305C119.957 60.1346 119.713 60.509 119.309 60.9368L117.705 62.6303V62.7729ZM121.634 63.5038L122.412 62.1728L121.729 61.8994L121.188 63.3077L121.634 63.5038ZM124.564 62.2025C123.929 62.2025 123.56 61.7152 123.56 60.7526V60.5387C123.56 59.5939 123.911 59.0828 124.553 59.0828C125.188 59.0828 125.533 59.6295 125.533 60.5327V60.7407C125.533 61.7034 125.218 62.2025 124.564 62.2025ZM124.547 62.8324C125.658 62.8324 126.323 62.0183 126.323 60.7407V60.5268C126.323 59.2492 125.622 58.4649 124.547 58.4649C123.477 58.4649 122.764 59.2552 122.764 60.5446V60.7585C122.764 62.0361 123.465 62.8324 124.547 62.8324ZM128.731 62.2025C128.095 62.2025 127.727 61.7152 127.727 60.7526V60.5387C127.727 59.5939 128.077 59.0828 128.719 59.0828C129.355 59.0828 129.7 59.6295 129.7 60.5327V60.7407C129.7 61.7034 129.385 62.2025 128.731 62.2025ZM128.713 62.8324C129.824 62.8324 130.49 62.0183 130.49 60.7407V60.5268C130.49 59.2492 129.789 58.4649 128.713 58.4649C127.644 58.4649 126.93 59.2552 126.93 60.5446V60.7585C126.93 62.0361 127.632 62.8324 128.713 62.8324ZM132.897 62.2025C132.262 62.2025 131.893 61.7152 131.893 60.7526V60.5387C131.893 59.5939 132.244 59.0828 132.886 59.0828C133.521 59.0828 133.866 59.6295 133.866 60.5327V60.7407C133.866 61.7034 133.551 62.2025 132.897 62.2025ZM132.88 62.8324C133.991 62.8324 134.656 62.0183 134.656 60.7407V60.5268C134.656 59.2492 133.955 58.4649 132.88 58.4649C131.81 58.4649 131.097 59.2552 131.097 60.5446V60.7585C131.097 62.0361 131.798 62.8324 132.88 62.8324ZM138.498 62.8324C139.621 62.8324 140.221 62.2203 140.221 61.1091V58.5243H139.425V61.0438C139.425 61.9232 139.116 62.1966 138.504 62.1966C137.874 62.1966 137.624 61.8757 137.624 61.0972V58.5243H136.828V61.1567C136.828 62.25 137.434 62.8324 138.498 62.8324ZM142.602 62.8324C143.541 62.8324 144.165 62.256 144.165 61.5191C144.165 60.6694 143.648 60.3842 142.649 60.2475C141.912 60.1406 141.77 59.9682 141.77 59.6236C141.77 59.2968 142.019 59.065 142.501 59.065C142.988 59.065 143.243 59.2552 143.321 59.7008H144.046C143.962 58.8867 143.416 58.4708 142.501 58.4708C141.615 58.4708 141.021 58.9937 141.021 59.6889C141.021 60.4852 141.502 60.7942 142.519 60.9309C143.208 61.0438 143.404 61.1923 143.404 61.5845C143.404 61.9767 143.071 62.2382 142.602 62.2382C141.883 62.2382 141.71 61.8816 141.657 61.4538H140.896C140.956 62.256 141.443 62.8324 142.602 62.8324ZM145.72 62.149V59.1482H146.178C147.176 59.1482 147.592 59.7008 147.592 60.6159V60.6635C147.592 61.6023 147.134 62.149 146.183 62.149H145.72ZM144.93 62.7729H146.207C147.699 62.7729 148.418 61.8935 148.418 60.6575V60.604C148.418 59.3681 147.699 58.5243 146.219 58.5243H144.93V62.7729ZM151.032 62.8324C152.042 62.8324 152.767 62.3154 152.891 61.2933H152.119C152.036 61.8935 151.62 62.1906 151.032 62.1906C150.247 62.1906 149.79 61.6261 149.79 60.6694V60.6219C149.79 59.6711 150.277 59.0888 151.026 59.0888C151.638 59.0888 151.953 59.38 152.042 59.9445H152.844C152.749 58.9462 151.994 58.4589 151.02 58.4589C149.837 58.4589 148.958 59.3502 148.958 60.6278V60.6754C148.958 61.9826 149.7 62.8324 151.032 62.8324Z"
        fill="white" fill-opacity="0.55" />
    <path
        d="M13.3167 62.3489H14.0595L14.3922 61.2971H16.0145L16.3532 62.3489H17.1732L15.7708 58.1002H14.7369L13.3167 62.3489ZM15.2063 58.7479L15.8302 60.7207H14.5764L15.2063 58.7479ZM17.7622 62.3489H18.4812V60.489C18.4812 60.0136 18.808 59.7759 19.1646 59.7759C19.5152 59.7759 19.7172 59.972 19.7172 60.4295V62.3489H20.4362V60.489C20.4362 60.0136 20.763 59.7759 21.1195 59.7759C21.4761 59.7759 21.6722 59.972 21.6722 60.4295V62.3489H22.3912V60.382C22.3912 59.5263 21.9277 59.1757 21.3572 59.1757C20.971 59.1757 20.5432 59.3481 20.3055 59.7343C20.151 59.3481 19.8301 59.1757 19.426 59.1757C18.9685 59.1757 18.6298 59.4253 18.4812 59.7165V59.2411H17.7622V62.3489ZM24.6074 61.8497C24.0608 61.8497 23.7458 61.4516 23.7458 60.8158V60.7683C23.7458 60.1265 24.0726 59.7402 24.6074 59.7402C25.1422 59.7402 25.4631 60.1324 25.4631 60.7742V60.8158C25.4631 61.4516 25.1422 61.8497 24.6074 61.8497ZM24.6015 62.4083C25.5166 62.4083 26.1999 61.7784 26.1999 60.8098V60.7623C26.1999 59.8116 25.5166 59.1757 24.6074 59.1757C23.6923 59.1757 23.009 59.8175 23.009 60.7801V60.8277C23.009 61.7725 23.6864 62.4083 24.6015 62.4083ZM27.8895 62.4083C28.3946 62.4083 28.7214 62.1647 28.8759 61.8616V62.3489H29.5949V59.2411H28.8759V61.0891C28.8759 61.5823 28.5372 61.8319 28.1509 61.8319C27.735 61.8319 27.5389 61.618 27.5389 61.1486V59.2411H26.8199V61.2317C26.8199 62.0577 27.2774 62.4083 27.8895 62.4083ZM30.4474 62.3489H31.1664V60.5187C31.1664 60.0255 31.4932 59.7759 31.8973 59.7759C32.3251 59.7759 32.5153 59.9898 32.5153 60.4593V62.3489H33.2343V60.3939C33.2343 59.5382 32.7946 59.1757 32.1707 59.1757C31.6596 59.1757 31.315 59.4313 31.1664 59.7343V59.2411H30.4474V62.3489ZM35.1204 62.4024C35.3402 62.4024 35.4947 62.3667 35.6076 62.3251V61.7547C35.5066 61.7963 35.3996 61.8141 35.257 61.8141C35.0312 61.8141 34.9005 61.6893 34.9005 61.416V59.7818H35.5838V59.2411H34.9005V58.5578H34.1815V59.2411H33.7655V59.7818H34.1815V61.4813C34.1815 62.0696 34.5024 62.4024 35.1204 62.4024Z"
        fill="white" />
    <rect x="13.3997" y="67.6068" width="139.942" height="22.1849" rx="4.03221" stroke="white" stroke-opacity="0.2"
        stroke-width="0.424443" />
    <path
        d="M38.9217 81.2381C39.8962 81.2381 40.5142 80.7509 40.5142 79.9665C40.5142 79.402 40.1874 79.0514 39.6942 78.9385C40.1042 78.784 40.3834 78.4928 40.3834 78.0115C40.3834 77.3816 39.8665 76.8706 38.9811 76.8706C38.0719 76.8706 37.5193 77.4351 37.4777 78.172H38.1789C38.2264 77.7441 38.5176 77.4708 38.9692 77.4708C39.4089 77.4708 39.6288 77.7263 39.6288 78.0709C39.6288 78.4691 39.4089 78.6949 38.9217 78.6949H38.6186V79.2594H38.9454C39.4624 79.2594 39.712 79.4911 39.712 79.9546C39.712 80.3765 39.4565 80.6439 38.9038 80.6439C38.3334 80.6439 38.0838 80.3111 38.0422 79.8655H37.3232C37.3589 80.6796 37.9115 81.2381 38.9217 81.2381ZM42.921 80.6083C42.2852 80.6083 41.9168 80.121 41.9168 79.1584V78.9444C41.9168 77.9996 42.2674 77.4886 42.9092 77.4886C43.545 77.4886 43.8896 78.0353 43.8896 78.9385V79.1465C43.8896 80.1091 43.5747 80.6083 42.921 80.6083ZM42.9032 81.2381C44.0144 81.2381 44.6799 80.4241 44.6799 79.1465V78.9326C44.6799 77.655 43.9788 76.8706 42.9032 76.8706C41.8336 76.8706 41.1206 77.6609 41.1206 78.9504V79.1643C41.1206 80.4419 41.8217 81.2381 42.9032 81.2381ZM47.0876 80.6083C46.4517 80.6083 46.0833 80.121 46.0833 79.1584V78.9444C46.0833 77.9996 46.4339 77.4886 47.0757 77.4886C47.7115 77.4886 48.0561 78.0353 48.0561 78.9385V79.1465C48.0561 80.1091 47.7412 80.6083 47.0876 80.6083ZM47.0697 81.2381C48.1809 81.2381 48.8464 80.4241 48.8464 79.1465V78.9326C48.8464 77.655 48.1453 76.8706 47.0697 76.8706C46.0001 76.8706 45.2871 77.6609 45.2871 78.9504V79.1643C45.2871 80.4419 45.9882 81.2381 47.0697 81.2381Z"
        fill="white" />
    <path
        d="M21.219 81.2381C22.3421 81.2381 22.9423 80.6261 22.9423 79.5149V76.93H22.146V79.4495C22.146 80.329 21.837 80.6023 21.225 80.6023C20.5951 80.6023 20.3455 80.2814 20.3455 79.503V76.93H19.5493V79.5624C19.5493 80.6558 20.1554 81.2381 21.219 81.2381ZM25.323 81.2381C26.2619 81.2381 26.8858 80.6617 26.8858 79.9249C26.8858 79.0752 26.3689 78.7899 25.3706 78.6533C24.6337 78.5463 24.4911 78.374 24.4911 78.0293C24.4911 77.7025 24.7407 77.4708 25.222 77.4708C25.7093 77.4708 25.9648 77.6609 26.042 78.1066H26.767C26.6838 77.2925 26.1371 76.8766 25.222 76.8766C24.3366 76.8766 23.7424 77.3995 23.7424 78.0947C23.7424 78.891 24.2237 79.2 25.2399 79.3366C25.9291 79.4495 26.1252 79.5981 26.1252 79.9903C26.1252 80.3825 25.7925 80.6439 25.323 80.6439C24.604 80.6439 24.4317 80.2874 24.3782 79.8595H23.6176C23.6771 80.6617 24.1643 81.2381 25.323 81.2381ZM28.4413 80.5548V77.554H28.8989C29.8971 77.554 30.3131 78.1066 30.3131 79.0217V79.0692C30.3131 80.0081 29.8556 80.5548 28.9048 80.5548H28.4413ZM27.651 81.1787H28.9286C30.4201 81.1787 31.1391 80.2993 31.1391 79.0633V79.0098C31.1391 77.7738 30.4201 76.93 28.9405 76.93H27.651V81.1787ZM33.7528 81.2381C34.763 81.2381 35.488 80.7212 35.6128 79.6991H34.8403C34.7571 80.2993 34.3411 80.5964 33.7528 80.5964C32.9685 80.5964 32.5109 80.0319 32.5109 79.0752V79.0276C32.5109 78.0769 32.9982 77.4945 33.7469 77.4945C34.359 77.4945 34.6739 77.7857 34.763 78.3502H35.5652C35.4701 77.3519 34.7155 76.8647 33.741 76.8647C32.5585 76.8647 31.679 77.756 31.679 79.0336V79.0811C31.679 80.3884 32.4218 81.2381 33.7528 81.2381Z"
        fill="white" fill-opacity="0.55" />
    <rect x="127.254" y="72.5273" width="21.8721" height="12.593" rx="3.31395" fill="#0077e4" />
    <path
        d="M133.044 81.3345H133.757V78.1257L135.046 81.3345H135.302L136.568 78.1257V81.3345H137.358V77.0858H136.312L135.219 79.9856L134.102 77.0858H133.044V81.3345ZM139.056 81.3939C139.531 81.3939 139.805 81.2216 140.007 80.9542V81.3345H140.714V79.2963C140.714 78.4466 140.167 78.1613 139.472 78.1613C138.777 78.1613 138.2 78.4644 138.141 79.1893H138.836C138.872 78.8803 139.056 78.7021 139.43 78.7021C139.852 78.7021 139.995 78.9101 139.995 79.326V79.4864H139.609C138.717 79.4864 138.016 79.7479 138.016 80.4729C138.016 81.1206 138.486 81.3939 139.056 81.3939ZM139.228 80.8769C138.872 80.8769 138.729 80.7046 138.729 80.4431C138.729 80.0628 139.08 79.9381 139.626 79.9381H139.995V80.247C139.995 80.6452 139.668 80.8769 139.228 80.8769ZM141.235 81.3345H141.984L142.726 80.2114L143.451 81.3345H144.289L143.178 79.6885L144.182 78.2267H143.428L142.786 79.2309L142.138 78.2267H141.306L142.316 79.742L141.235 81.3345Z"
        fill="white" />
    <rect x="13.7269" y="94.8707" width="139.57" height="20.2672" rx="5.24726" fill="#0077e4" fill-opacity="0.3"
        stroke="#0077e4" stroke-width="0.942057" />
    <path
        d="M74.0245 101.934L73.3249 107.028H72.0947L71.5442 102.73L70.9938 107.028H69.7635L69.0639 101.934H69.8796L70.3969 106.112L70.9341 101.934H72.1543L72.6915 106.112L73.2088 101.934H74.0245ZM74.9729 102.952C74.827 102.952 74.7054 102.904 74.6081 102.806C74.5131 102.709 74.4656 102.589 74.4656 102.445C74.4656 102.299 74.5131 102.177 74.6081 102.08C74.7054 101.983 74.827 101.934 74.9729 101.934C75.121 101.934 75.2426 101.983 75.3377 102.08C75.4349 102.177 75.4836 102.299 75.4836 102.445C75.4836 102.589 75.4349 102.709 75.3377 102.806C75.2426 102.904 75.121 102.952 74.9729 102.952ZM75.3808 107.028H74.565V103.632H75.3808V107.028ZM77.3504 105.867C77.3504 106.033 77.3913 106.154 77.4731 106.232C77.5549 106.309 77.6831 106.348 77.8578 106.348C77.9904 106.348 78.1153 106.328 78.2325 106.288V107.014C78.0689 107.067 77.8898 107.094 77.6953 107.094C77.5185 107.094 77.3626 107.074 77.2278 107.034C77.0929 106.997 76.9713 106.935 76.863 106.849C76.7569 106.762 76.6751 106.642 76.6176 106.487C76.5624 106.33 76.5347 106.141 76.5347 105.92V104.345H75.9909V103.632H76.5347V102.614H77.3504V103.632H78.2325V104.345H77.3504V105.867ZM79.791 105.161V107.028H78.9753V101.934H79.791V104.119C79.8949 103.94 80.0309 103.803 80.1989 103.708C80.3669 103.613 80.557 103.566 80.7692 103.566C81.145 103.566 81.449 103.69 81.6811 103.937C81.9154 104.182 82.0326 104.536 82.0326 104.998V107.028H81.2169V105.161C81.2169 104.878 81.1539 104.66 81.0278 104.507C80.9018 104.355 80.7272 104.279 80.5039 104.279C80.2807 104.279 80.106 104.355 79.98 104.507C79.854 104.66 79.791 104.878 79.791 105.161ZM85.3585 107.028V106.6C85.2303 106.757 85.0789 106.878 84.9042 106.965C84.7296 107.051 84.5417 107.094 84.3405 107.094C83.8718 107.094 83.4828 106.929 83.1733 106.6C82.866 106.268 82.7124 105.845 82.7124 105.33C82.7124 104.815 82.866 104.393 83.1733 104.063C83.4828 103.732 83.8718 103.566 84.3405 103.566C84.5417 103.566 84.7296 103.609 84.9042 103.695C85.0789 103.781 85.2303 103.903 85.3585 104.06V101.934H86.1742V107.028H85.3585ZM85.0999 104.594C84.9274 104.406 84.7086 104.312 84.4433 104.312C84.178 104.312 83.9581 104.407 83.7834 104.597C83.611 104.785 83.5248 105.029 83.5248 105.33C83.5248 105.63 83.611 105.876 83.7834 106.066C83.9581 106.254 84.178 106.348 84.4433 106.348C84.7086 106.348 84.9274 106.254 85.0999 106.066C85.2723 105.878 85.3585 105.633 85.3585 105.33C85.3585 105.027 85.2723 104.782 85.0999 104.594ZM87.9416 105.297V107.028H87.1259V103.632H87.9416V104.182C88.1936 103.771 88.5739 103.566 89.0823 103.566C89.1685 103.566 89.2249 103.57 89.2514 103.579V104.468C89.1497 104.432 89.0326 104.415 88.8999 104.415C88.5971 104.415 88.3616 104.491 88.1936 104.643C88.0256 104.796 87.9416 105.014 87.9416 105.297ZM91.8843 107.028V106.524C91.6765 106.904 91.3162 107.094 90.8033 107.094C90.5999 107.094 90.4142 107.062 90.2462 106.998C90.0804 106.934 89.9412 106.826 89.8284 106.676C89.7179 106.524 89.6626 106.338 89.6626 106.119C89.6626 105.944 89.6936 105.793 89.7555 105.665C89.8196 105.537 89.9036 105.437 90.0075 105.366C90.1114 105.296 90.2296 105.236 90.3623 105.187C90.4949 105.136 90.6298 105.101 90.7668 105.081C90.9039 105.061 91.0387 105.039 91.1714 105.015C91.304 104.99 91.4223 104.967 91.5262 104.945C91.6301 104.921 91.713 104.882 91.7749 104.829C91.839 104.776 91.871 104.71 91.871 104.63C91.871 104.502 91.8114 104.4 91.692 104.325C91.5748 104.248 91.4256 104.209 91.2443 104.209C91.052 104.209 90.8984 104.259 90.7834 104.358C90.6707 104.458 90.6143 104.6 90.6143 104.786H89.7654C89.7654 104.574 89.8063 104.387 89.8881 104.226C89.9699 104.064 90.0815 103.937 90.223 103.844C90.3645 103.749 90.5203 103.68 90.6906 103.635C90.863 103.589 91.0476 103.566 91.2443 103.566C91.4389 103.566 91.619 103.587 91.7848 103.629C91.9528 103.669 92.1054 103.73 92.2424 103.814C92.3795 103.898 92.4878 104.013 92.5674 104.159C92.647 104.303 92.6868 104.471 92.6868 104.663V107.028H91.8843ZM90.4982 106.063C90.4982 106.178 90.5413 106.266 90.6276 106.328C90.716 106.388 90.8309 106.417 90.9724 106.417C91.2244 106.417 91.4389 106.348 91.6157 106.209C91.7948 106.069 91.8843 105.876 91.8843 105.628V105.472C91.7915 105.512 91.6754 105.548 91.5361 105.579C91.3969 105.607 91.2709 105.633 91.1581 105.655C91.0454 105.675 90.9359 105.7 90.8298 105.731C90.7259 105.762 90.6441 105.805 90.5844 105.86C90.527 105.913 90.4982 105.981 90.4982 106.063ZM98.1846 103.632L97.3357 107.028H96.2979L95.691 104.385L95.0809 107.028H94.043L93.1941 103.632H93.9734L94.5702 106.268L95.1704 103.632H96.2083L96.8052 106.268L97.4021 103.632H98.1846Z"
        fill="white" />
    <defs>
        <filter id="filter0_d_414_881" x="64.6562" y="31.1628" width="2.58398" height="4.17564"
            filterUnits="userSpaceOnUse" color-interpolation-filters="sRGB">
            <feFlood flood-opacity="0" result="BackgroundImageFix" />
            <feColorMatrix in="SourceAlpha" type="matrix" values="0 0 0 0 0 0 0 0 0 0 0 0 0 0 0 0 0 0 127 0"
                result="hardAlpha" />
            <feOffset dy="0.198837" />
            <feComposite in2="hardAlpha" operator="out" />
            <feColorMatrix type="matrix" values="0 0 0 0 1 0 0 0 0 1 0 0 0 0 1 0 0 0 0.25 0" />
            <feBlend mode="normal" in2="BackgroundImageFix" result="effect1_dropShadow_414_881" />
            <feBlend mode="normal" in="SourceGraphic" in2="effect1_dropShadow_414_881" result="shape" />
        </filter>
        <radialGradient id="paint0_radial_414_881" cx="0" cy="0" r="1" gradientUnits="userSpaceOnUse"
            gradientTransform="translate(-39.8072 -38.8367) rotate(40.8888) scale(177.604 237.626)">
            <stop stop-color="#0077e4" />
            <stop offset="1" stop-opacity="0" />
        </radialGradient>
        <linearGradient id="paint1_linear_414_881" x1="65.9938" y1="29.3416" x2="65.9938" y2="36.9815"
            gradientUnits="userSpaceOnUse">
            <stop stop-color="#9F44FF" />
            <stop offset="1" stop-color="#FAFF00" />
        </linearGradient>
    </defs>
</svg>