<svg width="62" height="17" viewBox="0 0 62 17" fill="none" xmlns="http://www.w3.org/2000/svg"><path opacity=".4" fill-rule="evenodd" clip-rule="evenodd" d="m31.768 1.513 5.922 14.364a1.593 1.593 0 0 0 1.483 1.108h.524a1.593 1.593 0 0 0 1.484-1.106l5.922-14.364c.046-.131.07-.269.072-.408a1.125 1.125 0 0 0-.29-.8 1.02 1.02 0 0 0-.786-.305c-.22.002-.434.074-.611.203a1.295 1.295 0 0 0-.422.539l-5.63 14.058L33.804.744c-.09-.214-.236-.4-.422-.539a1.06 1.06 0 0 0-.611-.203 1.02 1.02 0 0 0-.786.305 1.125 1.125 0 0 0-.29.798c0 .14.025.277.072.408Zm17.688 14.678c.052.133.13.253.231.355a.95.95 0 0 0 .772.306h9.62a1.024 1.024 0 0 0 .727-.29.926.926 0 0 0 .305-.714.978.978 0 0 0-.305-.727.956.956 0 0 0-.728-.306h-8.514V9.49h7.654a1.023 1.023 0 0 0 .727-.291.926.926 0 0 0 .306-.714 1.003 1.003 0 0 0-.306-.727.956.956 0 0 0-.727-.306h-7.654V2.155h8.514a1.023 1.023 0 0 0 .728-.291.925.925 0 0 0 .305-.713.978.978 0 0 0-.305-.728.956.956 0 0 0-.728-.305h-9.62a1.01 1.01 0 0 0-.77.32 1.111 1.111 0 0 0-.306.785v14.551c-.004.143.02.285.074.417ZM33.11 15.47 27.19 1.105A1.593 1.593 0 0 0 25.704.001h-.523a1.593 1.593 0 0 0-1.484 1.106L21.12 7.364h-1.95a1.069 1.069 0 0 0-1.062 1.063v.014a1.068 1.068 0 0 0 1.063 1.063h1.047L17.76 15.47a1.262 1.262 0 0 0-.073.408 1.13 1.13 0 0 0 .291.8 1.02 1.02 0 0 0 .786.305c.22-.003.433-.074.611-.203.186-.139.332-.325.422-.539l2.706-6.737h1.863a1.069 1.069 0 0 0 1.062-1.062v-.03a1.069 1.069 0 0 0-1.062-1.062h-1.004l2.078-5.166 5.631 14.059c.09.214.235.4.422.538.178.13.391.2.611.204a1.021 1.021 0 0 0 .785-.306c.198-.218.303-.506.291-.8a.964.964 0 0 0-.07-.41ZM9.502 1.106l5.921 14.364a.96.96 0 0 1 .073.41c.011.294-.093.58-.291.8a1.02 1.02 0 0 1-.786.305 1.06 1.06 0 0 1-.611-.204 1.294 1.294 0 0 1-.422-.538L7.756 2.184 5.69 7.35h1.004a1.069 1.069 0 0 1 1.062 1.062v.03a1.069 1.069 0 0 1-1.062 1.062H4.817L2.11 16.241c-.09.214-.235.4-.422.538-.177.13-.39.201-.61.204a1.02 1.02 0 0 1-.786-.306 1.125 1.125 0 0 1-.291-.8c.002-.139.026-.276.073-.407l2.459-5.966H1.485A1.069 1.069 0 0 1 .423 8.442v-.015a1.069 1.069 0 0 1 1.062-1.062h1.95L6.01 1.107A1.593 1.593 0 0 1 7.494.002h.524a1.593 1.593 0 0 1 1.484 1.104Z" fill="#fff"/></svg>