<svg width="73" height="23" viewBox="0 0 73 23" fill="none" xmlns="http://www.w3.org/2000/svg"><path opacity=".4" fill-rule="evenodd" clip-rule="evenodd" d="M2.078 2.662 3.384 1.34A64.641 64.641 0 0 1 4.708.02c.01 0 1.263 1.258 2.783 2.797 1.52 1.538 2.78 2.796 2.801 2.796.02 0 1.286-1.263 2.811-2.806L15.876 0l1.315 1.33 1.315 1.33-3.183 3.222-3.182 3.221v5.998H8.444V9.103L5.26 5.883 2.078 2.661ZM1.01 12.268c.118-1.154.545-2.598 1.007-3.41l.074-.129 1.406 1.421c1.095 1.108 1.403 1.44 1.388 1.5-.168.745-.188.908-.19 1.543-.002.683.045 1.048.21 1.62.507 1.76 1.915 3.228 3.643 3.796.635.21.944.253 1.763.252.806-.002 1.157-.055 1.78-.271 1.635-.565 3.003-1.963 3.52-3.595.16-.509.224-.839.265-1.374a5.88 5.88 0 0 0-.1-1.573 14.62 14.62 0 0 1-.081-.393c-.018-.102.085-.216 1.367-1.514.762-.772 1.4-1.404 1.418-1.404.043 0 .41.794.552 1.196.416 1.172.56 2.02.559 3.298-.001 1.18-.117 1.91-.472 2.99a9.337 9.337 0 0 1-7.244 6.288c-5.13.902-10.004-2.647-10.807-7.87-.086-.558-.117-1.8-.059-2.37Zm36.083-2.04c0-2.703 1.839-4.456 4.56-4.456 2.648 0 4.413 1.607 4.486 4.164 0 .292 0 .511-.073.804h-6.473v.146c.074 1.242.883 1.973 2.133 1.973 1.03 0 1.692-.439 1.913-1.242h2.427c-.294 1.68-1.839 3.068-4.193 3.068-3.015 0-4.78-1.753-4.78-4.457Zm4.56-2.703c-1.03 0-1.839.658-1.986 1.68h4.045c-.22-1.095-.956-1.68-2.06-1.68Zm-9.267 4.53 2.133-6.21h2.574l-3.898 9.936c-.589 1.461-1.03 2.192-2.428 2.192h-2.353v-2.046h1.324c.662 0 .882-.146 1.103-.73l.22-.585-3.456-8.767h2.574l2.207 6.21Zm19.048-6.283c-2.354 0-3.972 1.096-4.119 2.849h2.354c.073-.657.735-1.096 1.691-1.096 1.03 0 1.618.512 1.618 1.315v.439h-1.765c-2.648 0-4.045 1.022-4.045 2.922 0 1.68 1.398 2.557 3.31 2.557 1.397 0 2.28-.584 2.942-1.534.073.803.147 1.461.147 1.461h1.839V9.059c0-2.191-1.471-3.287-3.972-3.287Zm1.544 5.26c0 1.169-.809 1.973-2.059 1.973-.809 0-1.324-.366-1.324-1.023 0-.73.589-1.17 1.618-1.17h1.765v.22Zm6.253-5.187.221 1.315c.515-.804 1.177-1.315 2.574-1.315h.368v2.192h-.956c-1.398 0-1.986.95-1.986 2.264v4.311h-2.427V5.845h2.206Zm9.556-.073c-1.397 0-2.206.511-2.722 1.169l-.293-1.096h-2.134v8.767h2.427v-4.457c0-1.534.736-2.41 1.986-2.41s1.839.803 1.839 2.264v4.603h2.427V9.79c0-2.995-1.618-4.018-3.53-4.018Z" fill="#fff"/></svg>