<svg width="66" height="17" viewBox="0 0 66 17" fill="none" xmlns="http://www.w3.org/2000/svg"><path d="M23.747 16.986 12.085 0 .388 16.986h16.297l-4.6-6.483-2.282 3.368H7.378L12.087 7.1l6.806 9.887h4.854Zm9.768-8.607c-.133 0-.19.057-.19.19v1.14c0 .132.057.19.19.19h3.78v1.997a4.243 4.243 0 0 1-3.837 1.915c-2.83 0-4.577-1.82-4.577-5.318 0-3.476 2.051-5.319 4.387-5.319 1.82 0 3.305.722 3.78 2.47a.222.222 0 0 0 .228.19h1.213c.133 0 .209-.057.209-.19-.513-2.66-2.793-3.99-5.433-3.99-2.963 0-6.059 2.28-6.059 6.839 0 4.502 2.928 6.838 6.325 6.838a5.91 5.91 0 0 0 5.167-2.735 1.24 1.24 0 0 0 .19-.722V8.572c0-.133-.057-.19-.19-.19l-5.183-.003Zm19.716-6.344c0-.133-.057-.19-.19-.19h-1.804a.293.293 0 0 0-.304.19l-3.685 8.452-3.685-8.452a.293.293 0 0 0-.304-.19h-1.804c-.133 0-.19.057-.19.19V14.95c0 .133.057.19.19.19h1.215c.133 0 .19-.057.19-.19V4.333l3.72 8.415a.263.263 0 0 0 .247.17h.842a.262.262 0 0 0 .247-.17l3.72-8.415v10.618c0 .133.057.19.19.19h1.215c.133 0 .19-.057.19-.19V2.035Zm4.141 0c-.133-.171-.133-.19-.266-.19h-1.462c-.133 0-.19.095-.133.19l4.026 6.094-4.52 6.822c-.057.095 0 .19.133.19h1.424c.133 0 .171-.02.304-.19l3.612-5.43 3.606 5.43c.133.17.171.19.304.19h1.424c.133 0 .19-.095.133-.19L61.44 8.13l4.027-6.093c.057-.095 0-.19-.133-.19h-1.466c-.133 0-.133.019-.266.19L60.49 6.726l-3.118-4.691Z" opacity=".4" fill="#fff"/></svg>