<svg width="91" height="19" viewBox="0 0 91 19" fill="none" xmlns="http://www.w3.org/2000/svg"><path d="M26.736 4.304h2.156V5.64h.103a4.32 4.32 0 0 1 .841-.76 4.155 4.155 0 0 1 2.444-.78c2.772 0 4.928 2.156 4.928 5.44 0 3.286-2.156 5.442-4.928 5.442-1.089 0-1.89-.37-2.444-.76a3.84 3.84 0 0 1-.841-.78h-.103v5.236h-2.156V4.304Zm5.133 8.726c1.869 0 3.08-1.211 3.08-3.49 0-2.28-1.211-3.49-3.08-3.49-1.745 0-2.977 1.21-2.977 3.49 0 2.279 1.232 3.49 2.977 3.49Zm6.946-8.726h2.157v1.54h.102c.165-.308.39-.575.657-.821A3.25 3.25 0 0 1 43.95 4.2h1.232v2.054h-1.335c-1.643 0-2.874 1.129-2.874 2.874v5.646h-2.157V4.304Zm12.124-.205c2.977 0 5.338 2.381 5.338 5.44v.72h-8.52c.328 1.745 1.642 2.771 3.182 2.771 1.068 0 1.827-.328 2.3-.718a3.2 3.2 0 0 0 .677-.72h2.259c-.267.637-.616 1.212-1.088 1.705-.822.821-2.074 1.684-4.148 1.684-2.977 0-5.338-2.382-5.338-5.441 0-3.06 2.36-5.441 5.338-5.441Zm3.08 4.414c-.226-1.232-1.212-2.464-3.08-2.464-1.438 0-2.752.904-3.08 2.464h6.16Zm3.819-4.209h2.156v1.437h.103a3.3 3.3 0 0 1 .698-.821c.492-.41 1.231-.821 2.381-.821 1.335 0 2.177.492 2.69.985.308.288.534.616.698.965h.103c.185-.349.452-.677.8-.965.555-.493 1.459-.985 2.793-.985 2.382 0 3.901 1.52 3.901 4.414v6.262h-2.156v-6.16c0-1.744-.8-2.566-2.258-2.566-1.417 0-2.67 1.232-2.67 2.978v5.748h-2.155v-6.16c0-1.744-.801-2.566-2.259-2.566-1.417 0-2.67 1.232-2.67 2.978v5.748h-2.155V4.305ZM77.304.197c.718 0 1.293.575 1.293 1.294 0 .719-.575 1.273-1.293 1.273A1.253 1.253 0 0 1 76.03 1.49c0-.719.554-1.294 1.273-1.294Zm-1.068 14.578h2.156V4.304h-2.156v10.471Zm8.608-10.676c1.067 0 1.889.39 2.443.78.329.226.616.493.842.76h.103V4.303h2.155v10.471h-2.155v-1.437h-.103a4.01 4.01 0 0 1-.842.822 4.07 4.07 0 0 1-2.443.82c-2.772 0-4.928-2.155-4.928-5.44 0-3.285 2.156-5.441 4.928-5.441Zm.41 8.931c1.746 0 2.978-1.211 2.978-3.49 0-2.28-1.232-3.49-2.978-3.49-1.868 0-3.08 1.21-3.08 3.49 0 2.279 1.212 3.49 3.08 3.49ZM5.425 4.262h8.91c.506 0 .8.575.501.985l-4.24 5.83a.62.62 0 0 0 .501.985h3.737a.62.62 0 0 0 .501-.256L19.53 6.04a.62.62 0 0 0 0-.73L15.852.256a.62.62 0 0 0-.5-.255H4.407a.62.62 0 0 0-.501.255L.23 5.311a.62.62 0 0 0 0 .729l9.148 12.579a.62.62 0 0 0 1.003 0l1.868-2.57a.62.62 0 0 0 0-.729L4.923 5.247a.62.62 0 0 1 .502-.985Z" opacity=".4" fill-rule="evenodd" clip-rule="evenodd" fill="#fff"/></svg>