<svg width="80" height="22" viewBox="0 0 80 22" fill="none" xmlns="http://www.w3.org/2000/svg"><path opacity=".4" d="M37.954 18.319c2.783 0 4.633-1.71 4.633-3.893 0-2.52-1.533-3.365-4.492-3.77-2.184-.317-2.607-.828-2.607-1.85 0-.969.74-1.656 2.167-1.656 1.444 0 2.201.564 2.43 1.885h2.15c-.247-2.413-1.868-3.646-4.58-3.646-2.625 0-4.387 1.55-4.387 3.61 0 2.361 1.427 3.277 4.44 3.682 2.043.335 2.624.776 2.624 1.938 0 1.163-.986 1.938-2.378 1.938-2.131 0-2.642-1.057-2.8-2.325h-2.256c.176 2.378 1.621 4.087 5.056 4.087Zm9.86-.018c.652 0 1.11-.106 1.445-.23v-1.69c-.3.123-.616.176-1.04.176-.669 0-1.056-.37-1.056-1.18v-4.845h2.026V8.93h-2.026V6.904H45.03v2.025h-1.233v1.603h1.233v5.038c0 1.744.952 2.73 2.784 2.73Zm5.867.018c1.41 0 2.22-.511 2.819-1.304v1.127h2.096V12.1c0-2.519-1.62-3.364-3.682-3.364-2.06 0-3.77.898-3.946 3.047h2.061c.106-.916.652-1.444 1.762-1.444 1.25 0 1.673.616 1.673 1.85v.475H55.32c-2.642 0-4.72.775-4.72 2.924 0 1.92 1.39 2.73 3.082 2.73Zm.51-1.533c-1.056 0-1.479-.51-1.479-1.286 0-1.127 1.04-1.497 2.66-1.497h1.092v.916c0 1.18-.969 1.867-2.272 1.867Zm6.848 1.356h2.131v-4.527l3.453 4.527h2.466l-3.875-4.985L68.79 8.93h-2.326l-3.294 4.052V4.666h-2.13v13.476Zm13.117.177c2.36 0 3.928-1.057 4.228-2.995h-2.061c-.159.898-.828 1.41-2.114 1.41-1.585 0-2.466-.987-2.537-2.731h6.747v-.617c0-3.294-2.06-4.65-4.35-4.65-2.626 0-4.58 1.902-4.58 4.756v.14c0 2.907 1.954 4.687 4.667 4.687Zm-2.448-5.743c.211-1.427 1.074-2.29 2.36-2.29 1.321 0 2.132.704 2.237 2.29h-4.597Z" fill="#fff"/><path opacity=".4" fill-rule="evenodd" clip-rule="evenodd" d="M10.482 11.328c.466.207.978.313 1.496.312a3.678 3.678 0 0 0 1.497-.312l8.115-3.704a2.1 2.1 0 0 0 1.078-1.074c.2-.468.2-.987 0-1.454a2.102 2.102 0 0 0-1.078-1.075L13.475.317a3.69 3.69 0 0 0-2.993 0L2.367 4.021a2.099 2.099 0 0 0-1.079 1.075c-.2.467-.2.986 0 1.454.2.467.584.85 1.079 1.074l8.114 3.704Zm-.002 5.032c.466.207.978.313 1.496.312a3.679 3.679 0 0 0 1.497-.312l9.102-4.157c.26-.12.459-.33.55-.583a.923.923 0 0 0-.063-.765 1.085 1.085 0 0 0-.642-.5 1.21 1.21 0 0 0-.843.057l-9.102 4.146a1.21 1.21 0 0 1-.997 0l-9.102-4.146a1.211 1.211 0 0 0-.843-.057c-.279.083-.51.262-.643.5a.923.923 0 0 0-.062.765c.091.253.29.463.55.583l9.102 4.157Zm1.496 5.345a3.682 3.682 0 0 1-1.496-.313l-9.102-4.156a1.041 1.041 0 0 1-.55-.583.922.922 0 0 1 .062-.766c.133-.237.364-.417.643-.5.278-.083.581-.062.843.057l9.102 4.147c.313.143.684.143.997 0l9.102-4.147c.262-.12.565-.14.843-.057.279.083.51.263.642.5a.922.922 0 0 1 .063.766c-.091.252-.29.462-.55.583l-9.102 4.156a3.682 3.682 0 0 1-1.497.313Z" fill="#fff"/></svg>