<svg width="76" height="21" viewBox="0 0 76 21" fill="none" xmlns="http://www.w3.org/2000/svg">
<path opacity="0.7" fill-rule="evenodd" clip-rule="evenodd" d="M3.57125 0.648158C4.28574 0.359854 5.03783 0.196899 5.80246 0.196899C6.56709 0.196899 7.31919 0.347319 8.03368 0.635622C8.73564 0.93646 9.37492 1.36265 9.91392 1.91419C11.0045 3.01726 11.6061 4.52145 11.6061 6.07578V8.01869C11.6061 8.63291 11.4808 9.24712 11.2426 9.82373C11.017 10.3878 10.666 10.9143 10.2273 11.353C9.78857 11.7917 9.27464 12.1427 8.69803 12.3809C8.12143 12.619 7.50722 12.7444 6.893 12.7444V5.19834C6.893 5.06045 6.86793 4.9351 6.81779 4.80975C6.76765 4.6844 6.69245 4.57159 6.6047 4.48385C6.51696 4.3961 6.40414 4.32089 6.27879 4.27075C6.15344 4.22061 6.01556 4.19554 5.89021 4.19554H5.71472C5.57684 4.19554 5.45149 4.22061 5.32614 4.27075C5.20079 4.32089 5.08797 4.3961 5.00023 4.48385C4.91248 4.57159 4.83728 4.6844 4.78714 4.80975C4.737 4.9351 4.71193 5.06045 4.71193 5.19834V8.01869H0.0113273V6.07578C-0.00120765 5.31115 0.149212 4.54652 0.437515 3.83203C0.725818 3.11754 1.15201 2.47826 1.69101 1.92672C2.23001 1.37518 2.86929 0.948996 3.57125 0.648158ZM5.71665 16.5675H5.89214C6.03003 16.5675 6.15538 16.5425 6.26819 16.4923C6.39354 16.4422 6.50635 16.367 6.5941 16.2792C6.68184 16.1915 6.75705 16.0787 6.80719 15.9533C6.85733 15.828 6.8824 15.7026 6.8824 15.5648V12.7444H11.583V14.6622C11.583 15.4269 11.4451 16.1915 11.1568 16.906C10.8685 17.6205 10.4423 18.2598 9.90332 18.8113C9.37685 19.3628 8.72504 19.789 8.02308 20.0899C7.32112 20.3907 6.55649 20.5411 5.79186 20.5411C5.02723 20.5411 4.2626 20.3907 3.56064 20.0899C2.85869 19.789 2.21941 19.3628 1.68041 18.8113C1.1414 18.2723 0.715216 17.6205 0.426912 16.906C0.138609 16.1915 -0.0118103 15.4269 0.000724601 14.6622V12.7444C0.000724601 12.1302 0.126074 11.516 0.364238 10.9394C0.589866 10.3753 0.940844 9.84883 1.37957 9.4101C1.81829 8.97138 2.33222 8.6204 2.90883 8.38224C3.48544 8.14408 4.09965 8.01872 4.71386 8.01872V15.5648C4.71386 15.7026 4.73893 15.828 4.78907 15.9533C4.83921 16.0787 4.91442 16.1915 5.00216 16.2792C5.10244 16.367 5.20272 16.4422 5.32807 16.4923C5.45342 16.5425 5.5913 16.5675 5.71665 16.5675ZM17.9883 6.16356H19.643C19.643 6.16356 19.643 12.9701 19.6305 12.9826H22.8268V14.5745H17.9883V6.16356ZM27.2517 8.60787C27.5901 8.75829 27.8784 8.99645 28.1166 9.28475V8.60787H29.6584V14.6121H28.1166V13.8976C27.6653 14.4868 27.0135 14.7751 26.1737 14.7751C25.7851 14.7751 25.3965 14.6998 25.0455 14.5369C24.6945 14.3739 24.3686 14.1358 24.1179 13.8475C23.5664 13.2207 23.2656 12.4185 23.2656 11.5912C23.2656 10.7513 23.5664 9.9491 24.1179 9.33489C24.3812 9.03405 24.6945 8.80843 25.0455 8.64547C25.409 8.48252 25.7851 8.40731 26.1737 8.40731C26.5372 8.38224 26.9132 8.45745 27.2517 8.60787ZM27.1012 13.1706C27.3143 13.0828 27.5024 12.9575 27.6528 12.8071C27.9536 12.4686 28.1166 12.0299 28.1291 11.5912C28.1291 11.1399 27.9536 10.7137 27.6528 10.3753C27.4898 10.2123 27.3018 10.0995 27.1012 10.0118C26.9007 9.93657 26.6876 9.88643 26.462 9.89896C26.2489 9.88643 26.0232 9.92404 25.8227 10.0118C25.6221 10.0995 25.4341 10.2249 25.2837 10.3753C24.9828 10.7012 24.8199 11.1399 24.8199 11.5912C24.8199 12.0424 24.9828 12.4686 25.2837 12.8071C25.4341 12.97 25.6221 13.0828 25.8227 13.1706C26.0232 13.2458 26.2489 13.2959 26.462 13.2834C26.6751 13.2959 26.9007 13.2583 27.1012 13.1706ZM32.0776 8.57026L33.6319 12.6065L34.9481 8.57026H36.6027L34.4216 14.587C34.1083 15.4394 33.6946 16.0662 33.1807 16.4547C32.6291 16.8559 31.9397 17.0439 31.2628 16.9812V15.5397C31.6138 15.5648 31.9648 15.477 32.2531 15.2765C32.5289 15.0383 32.7294 14.7374 32.8297 14.3865L30.3854 8.57026H32.0776ZM38.7211 8.6204C39.1097 8.46998 39.5234 8.39477 39.9495 8.40731C40.3507 8.39477 40.7518 8.46998 41.1529 8.6204C41.5289 8.77082 41.8674 9.00899 42.1432 9.30982C42.7072 9.9115 43.0206 10.7263 42.9955 11.5661C42.9955 11.7792 42.9705 11.9923 42.9329 12.2054H38.4203C38.6208 12.9575 39.1849 13.3335 40.1 13.3335C40.3507 13.3461 40.6014 13.2959 40.8395 13.1957C41.0777 13.0954 41.2782 12.9324 41.4412 12.7319L42.6822 13.4589C42.093 14.3238 41.2281 14.75 40.0749 14.75C39.0846 14.75 38.2949 14.4491 37.6933 13.8475C37.1166 13.2333 36.7907 12.4185 36.7907 11.5786C36.7907 10.7388 37.1041 9.92404 37.6807 9.30982C37.9816 9.00899 38.3325 8.77082 38.7211 8.6204ZM38.9217 10.1246C38.6459 10.3502 38.4454 10.6636 38.3827 11.0146C38.3827 11.0146 41.4287 11.0146 41.4287 11.0271C41.3785 10.6636 41.178 10.3377 40.8897 10.1121C40.6139 9.9115 40.288 9.81122 39.9495 9.81122C39.586 9.78615 39.2225 9.89897 38.9217 10.1246ZM45.5903 8.5828V9.61066C45.7156 9.24715 45.9663 8.93378 46.3048 8.74575C46.6432 8.55773 47.0192 8.45745 47.4078 8.45745V10.1873C46.9566 10.1246 46.5178 10.2249 46.1418 10.4756C45.7783 10.7263 45.5903 11.1399 45.5903 11.7165V14.587H44.0485V8.5828H45.5903ZM54.9162 6.16356V7.46719C54.9162 7.46719 51.4315 12.9951 51.4441 12.9951H54.9915V14.587H49.3507V13.2583L52.8354 7.75549H49.4385V6.16356H54.9162ZM57.3982 8.6204C57.7867 8.46998 58.2004 8.39477 58.6266 8.40731C59.0277 8.39477 59.4414 8.46998 59.8299 8.6204C60.206 8.77082 60.5444 9.00899 60.8202 9.30982C61.3843 9.9115 61.6976 10.7263 61.6726 11.5661C61.6726 11.7792 61.6475 11.9923 61.6099 12.2054H57.0973C57.2979 12.9575 57.862 13.3335 58.777 13.3335C59.0277 13.3461 59.2784 13.2959 59.5166 13.1957C59.7547 13.0954 59.9553 12.9324 60.1182 12.7319L61.3592 13.4589C60.7701 14.3238 59.9051 14.75 58.7519 14.75C57.7617 14.75 56.972 14.4491 56.3703 13.8475C55.7937 13.2333 55.4678 12.4185 55.4678 11.5786C55.4678 10.7388 55.7812 9.92404 56.3578 9.30982C56.6586 9.00899 57.0096 8.77082 57.3982 8.6204ZM57.5987 10.1246C57.3229 10.3502 57.1224 10.6636 57.0597 11.0146L60.1057 11.0271C60.0556 10.6636 59.855 10.3377 59.5667 10.1121C59.2909 9.9115 58.965 9.81122 58.6266 9.81122C58.2631 9.78615 57.8996 9.89897 57.5987 10.1246ZM64.2673 8.5828V9.61066C64.3926 9.24715 64.6433 8.93378 64.9818 8.74575C65.3202 8.55773 65.6963 8.45745 66.0849 8.45745V10.1873C65.6336 10.1246 65.1949 10.2249 64.8188 10.4756C64.4553 10.7263 64.2673 11.1399 64.2673 11.7165V14.587H62.7255V8.5828H64.2673ZM67.6267 9.14687C68.1907 8.67054 68.8802 8.41984 69.6072 8.40731C70.0208 8.39477 70.4345 8.46998 70.8231 8.64547C71.2116 8.79589 71.5626 9.03405 71.8509 9.33489C72.3649 9.84882 72.6782 10.5257 72.7534 11.2527C72.8287 11.9798 72.6532 12.7068 72.2521 13.3085C71.8509 13.9101 71.2493 14.3614 70.5598 14.5745C69.8704 14.7876 69.1183 14.7625 68.454 14.4867C67.7896 14.211 67.2381 13.7096 66.8871 13.0703C66.5361 12.431 66.4233 11.6915 66.5612 10.977C66.6991 10.2625 67.0751 9.61066 67.6267 9.14687ZM70.2339 13.1204C70.4345 13.0452 70.61 12.9199 70.7604 12.7695C71.0612 12.4436 71.2242 12.0174 71.2242 11.5786C71.2242 11.1399 71.0612 10.7137 70.7604 10.3878C70.61 10.2374 70.4345 10.1121 70.2339 10.0368C70.0334 9.96164 69.8203 9.92404 69.6072 9.92404C69.3941 9.9115 69.181 9.96164 68.9804 10.0368C68.7799 10.1121 68.6044 10.2374 68.454 10.3878C68.1531 10.7137 67.9902 11.1399 67.9902 11.5786C67.9902 12.0174 68.1531 12.4436 68.454 12.7695C68.6044 12.9199 68.7799 13.0452 68.9804 13.1204C69.181 13.1957 69.3941 13.2333 69.6072 13.2333C69.8203 13.2458 70.0334 13.1957 70.2339 13.1204ZM74.1198 12.7319H76V14.587H74.1198V12.7319Z" fill="white"/>
</svg>
