<svg width="110" height="145" viewBox="0 0 110 145" fill="none" xmlns="http://www.w3.org/2000/svg">
<path opacity="0.5" d="M82.0554 68.68L81.5822 67.3362L76.8387 69.0065L81.7534 70.0723L82.0554 68.68ZM5.03035 44.89L3.60834 44.8032L3.51604 46.3147H5.03035V44.89ZM32.9154 44.89V46.3147H34.18L34.33 45.0589L32.9154 44.89ZM43.8354 59.71V58.2853H42.4107V59.71H43.8354ZM43.8354 80.77H42.4107V82.1947H43.8354V80.77ZM28.8204 97.735L30.2397 97.6116L30.1265 96.3103H28.8204V97.735ZM0.350352 97.735V96.3103H-1.13448L-1.07309 97.7939L0.350352 97.735ZM55.1454 145.57C72.3246 145.57 86.1777 141.375 95.7666 133.704C105.392 126.003 110.585 114.904 110.585 101.44H107.736C107.736 114.106 102.886 124.359 93.9866 131.479C85.0505 138.628 71.8961 142.72 55.1454 142.72V145.57ZM110.585 101.44C110.585 92.2612 107.754 84.6099 102.758 78.7935C97.7694 72.9865 90.6991 69.0968 82.3573 67.2877L81.7534 70.0723C89.5966 71.7732 96.0788 75.391 100.597 80.6502C105.106 85.9001 107.736 92.8738 107.736 101.44H110.585ZM82.5285 70.0238C89.6326 67.5223 95.6338 63.736 99.8621 58.4826C104.104 53.2125 106.49 46.5531 106.49 38.455H103.641C103.641 45.9569 101.444 51.9725 97.6424 56.6961C93.827 61.4365 88.3231 64.9627 81.5822 67.3362L82.5285 70.0238ZM106.49 38.455C106.49 27.1127 101.817 17.2454 93.1648 10.2426C84.5374 3.25976 72.0545 -0.799664 56.5104 -0.799664V2.04965C71.5812 2.04965 83.3758 5.98523 91.3722 12.4574C99.3439 18.9096 103.641 27.9573 103.641 38.455H106.49ZM56.5104 -0.799664C40.3347 -0.799664 27.4917 3.96839 18.4802 12.1217C9.46702 20.2764 4.40798 31.7091 3.60834 44.8032L6.45236 44.9768C7.21272 32.5259 12.0012 21.8261 20.3918 14.2346C28.784 6.64161 40.901 2.04965 56.5104 2.04965V-0.799664ZM5.03035 46.3147H32.9154V43.4653H5.03035V46.3147ZM34.33 45.0589C35.0794 38.7821 37.4028 33.8566 41.0038 30.5032C44.5966 27.1574 49.5915 25.2547 55.9254 25.2547V22.4053C48.9992 22.4053 43.2691 24.5001 39.0619 28.418C34.8629 32.3284 32.3113 37.9329 31.5007 44.7211L34.33 45.0589ZM55.9254 25.2547C62.0878 25.2547 66.5261 27.024 69.4164 29.8048C72.3041 32.5832 73.8057 36.5236 73.8057 41.185H76.655C76.655 35.9014 74.9391 31.1643 71.3919 27.7515C67.8471 24.341 62.6329 22.4053 55.9254 22.4053V25.2547ZM73.8057 41.185C73.8057 46.8707 72.2281 51.0582 69.133 53.8503C66.0103 56.6673 61.1007 58.2853 53.9754 58.2853V61.1347C61.475 61.1347 67.193 59.4377 71.0415 55.966C74.9176 52.4693 76.655 47.3943 76.655 41.185H73.8057ZM53.9754 58.2853H43.8354V61.1347H53.9754V58.2853ZM42.4107 59.71V80.77H45.26V59.71H42.4107ZM43.8354 82.1947H54.7554V79.3453H43.8354V82.1947ZM54.7554 82.1947C62.0748 82.1947 67.2774 83.8611 70.6443 86.8979C73.9837 89.9099 75.7557 94.4878 75.7557 100.855H78.605C78.605 93.9622 76.6721 88.4976 72.5527 84.7821C68.4608 81.0914 62.4509 79.3453 54.7554 79.3453V82.1947ZM75.7557 100.855C75.7557 106.81 73.9964 111.4 70.5453 114.521C67.0711 117.663 61.6649 119.515 53.9754 119.515V122.365C62.0808 122.365 68.2771 120.414 72.4566 116.634C76.6593 112.833 78.605 107.38 78.605 100.855H75.7557ZM53.9754 119.515C45.8765 119.515 40.282 117.17 36.5642 113.385C32.8241 109.577 30.8068 104.133 30.2397 97.6116L27.4011 97.8584C28.0039 104.792 30.1791 110.95 34.5315 115.381C38.9062 119.835 45.3042 122.365 53.9754 122.365V119.515ZM28.8204 96.3103H0.350352V99.1597H28.8204V96.3103ZM-1.07309 97.7939C-0.475729 112.23 4.46698 124.232 13.9337 132.61C23.3856 140.975 37.1681 145.57 55.1454 145.57V142.72C37.6326 142.72 24.6026 138.247 15.822 130.476C7.05622 122.718 2.34643 111.515 1.77379 97.6761L-1.07309 97.7939Z" fill="url(#paint0_linear_409_511)"/>
<defs>
<linearGradient id="paint0_linear_409_511" x1="56" y1="-23.7556" x2="56" y2="134.467" gradientUnits="userSpaceOnUse">
<stop stop-color="white"/>
<stop offset="1" stop-color="white" stop-opacity="0"/>
</linearGradient>
</defs>
</svg>
