<svg width="735" height="471" viewBox="0 0 735 471" fill="none" xmlns="http://www.w3.org/2000/svg"><g clip-path="url(#a)"><mask id="b" style="mask-type:alpha" maskUnits="userSpaceOnUse" x="0" y="-3" width="1372" height="474"><path fill="#9F44FF" d="M0-3h1372v474H0z"/></mask><g mask="url(#b)"><g filter="url(#c)"><path d="m332.547 489.293-408.018-81.212a7.852 7.852 0 0 0-3.71.255 7.82 7.82 0 0 0-3.174 1.925 7.384 7.384 0 0 0-1.863 3.127 6.964 6.964 0 0 0-.1 3.568l15.83 59.08c1.097 4.18 3.39 7.957 6.623 10.908 3.234 2.951 7.28 4.961 11.686 5.804l402.395 80.423c4.406.843 8.452 2.853 11.686 5.804 3.233 2.952 5.526 6.729 6.623 10.908l15.83 59.08a6.91 6.91 0 0 0 1.614 3.948 7.314 7.314 0 0 0 3.675 2.33 7.832 7.832 0 0 0 4.452-.102 7.778 7.778 0 0 0 3.672-2.5L711.12 379.82c3.425-2.964 5.951-6.761 7.299-10.972 1.348-4.21 1.466-8.669.341-12.884l-38.262-142.792a6.955 6.955 0 0 0-1.87-3.04 7.378 7.378 0 0 0-3.177-1.776 7.811 7.811 0 0 0-3.711-.081 7.858 7.858 0 0 0-3.341 1.634L354.429 483.43a25.553 25.553 0 0 1-10.258 5.48 25.542 25.542 0 0 1-11.624.383m-117.9-441.507a25.54 25.54 0 0 0 11.623-.384 25.547 25.547 0 0 0 10.258-5.48L549.699-232.34a7.642 7.642 0 0 1 3.308-1.647 7.613 7.613 0 0 1 3.687.09 7.183 7.183 0 0 1 3.133 1.806 6.784 6.784 0 0 1 1.784 3.063l38.261 142.793c1.117 4.17 1.009 8.58-.314 12.75-1.324 4.168-3.81 7.931-7.186 10.877l-311.07 273.126a7.642 7.642 0 0 1-3.336 1.759 7.609 7.609 0 0 1-3.766-.044 7.168 7.168 0 0 1-3.203-1.835 6.763 6.763 0 0 1-1.794-3.142l-15.783-58.902c-1.09-4.209-3.384-8.017-6.625-11-3.241-2.982-7.303-5.022-11.731-5.891l-403.47-79.944c-4.41-.907-8.45-2.96-11.685-5.936-3.235-2.977-5.542-6.764-6.671-10.954l-15.783-58.902a6.774 6.774 0 0 1-.018-3.618 7.191 7.191 0 0 1 1.856-3.19 7.62 7.62 0 0 1 3.24-1.922 7.645 7.645 0 0 1 3.769-.145l408.584 81.826-.239-.892Zm59.352 221.507-408.584-81.826a7.642 7.642 0 0 0-3.768.144 7.625 7.625 0 0 0-3.24 1.922 7.166 7.166 0 0 0-1.856 3.191 6.764 6.764 0 0 0 .017 3.618l15.831 59.08c1.103 4.229 3.404 8.058 6.65 11.068 3.246 3.011 7.312 5.087 11.754 6.001l402.348 80.244c4.666.711 8.986 2.712 12.436 5.761 3.45 3.049 5.881 7.014 6.999 11.415l15.782 58.901c.3 1.186.918 2.27 1.794 3.143a7.188 7.188 0 0 0 3.203 1.835 7.613 7.613 0 0 0 3.767.044 7.648 7.648 0 0 0 3.336-1.759L651.82 159.256c3.418-2.931 5.945-6.694 7.302-10.874 1.357-4.179 1.49-8.611.385-12.803L621.246-7.214a6.773 6.773 0 0 0-1.794-3.142 7.184 7.184 0 0 0-3.203-1.835 7.619 7.619 0 0 0-3.767-.044 7.644 7.644 0 0 0-3.335 1.759l-313.88 273.113a25.542 25.542 0 0 1-10.257 5.48 25.543 25.543 0 0 1-11.624.383l.613.793Z" stroke="#F7FAFF" stroke-width="4"/></g><g opacity=".5" filter="url(#d)"><path d="m335.075 498.727-408.019-81.212a7.852 7.852 0 0 0-3.71.255 7.82 7.82 0 0 0-3.173 1.925 7.384 7.384 0 0 0-1.864 3.127 6.965 6.965 0 0 0-.1 3.568l15.831 59.08c1.096 4.18 3.39 7.956 6.623 10.908 3.234 2.951 7.28 4.961 11.686 5.804l402.395 80.423c4.406.843 8.452 2.853 11.686 5.804 3.233 2.952 5.526 6.728 6.623 10.908l15.83 59.08a6.904 6.904 0 0 0 1.614 3.948 7.316 7.316 0 0 0 3.675 2.33 7.823 7.823 0 0 0 4.452-.103 7.769 7.769 0 0 0 3.672-2.499l311.352-272.819c3.425-2.964 5.951-6.762 7.299-10.972 1.348-4.21 1.466-8.669.34-12.884l-38.261-142.792a6.95 6.95 0 0 0-1.87-3.04 7.378 7.378 0 0 0-3.177-1.776 7.799 7.799 0 0 0-3.711-.081 7.858 7.858 0 0 0-3.341 1.634L356.956 492.864a25.528 25.528 0 0 1-10.257 5.479 25.543 25.543 0 0 1-11.624.384M217.175 57.22c3.828.768 7.815.636 11.623-.384a25.546 25.546 0 0 0 10.258-5.48l313.17-274.262a7.645 7.645 0 0 1 3.309-1.647 7.6 7.6 0 0 1 3.687.09 7.173 7.173 0 0 1 3.132 1.806 6.766 6.766 0 0 1 1.784 3.063L602.4-76.801a22.673 22.673 0 0 1-.315 12.749c-1.323 4.168-3.809 7.932-7.185 10.878L283.83 219.952a7.642 7.642 0 0 1-3.336 1.759 7.609 7.609 0 0 1-3.766-.044 7.177 7.177 0 0 1-3.203-1.835 6.766 6.766 0 0 1-1.794-3.143l-15.783-58.901c-1.09-4.21-3.384-8.018-6.625-11-3.241-2.982-7.303-5.022-11.731-5.891l-403.47-79.944c-4.41-.908-8.451-2.96-11.685-5.937-3.235-2.976-5.542-6.763-6.672-10.953l-15.782-58.902a6.774 6.774 0 0 1-.018-3.618 7.182 7.182 0 0 1 1.856-3.19 7.62 7.62 0 0 1 3.24-1.922 7.644 7.644 0 0 1 3.769-.145l408.584 81.826-.239-.892Zm59.352 221.506-408.584-81.825a7.642 7.642 0 0 0-3.768.144 7.617 7.617 0 0 0-3.24 1.921 7.176 7.176 0 0 0-1.856 3.191 6.764 6.764 0 0 0 .017 3.618l15.831 59.081c1.103 4.229 3.404 8.058 6.65 11.068 3.246 3.011 7.312 5.086 11.754 6.001l402.348 80.244c4.666.711 8.986 2.712 12.436 5.761 3.45 3.048 5.881 7.013 6.999 11.414l15.782 58.902a6.772 6.772 0 0 0 1.794 3.142 7.19 7.19 0 0 0 3.203 1.836 7.625 7.625 0 0 0 3.767.044 7.644 7.644 0 0 0 3.335-1.759L654.348 168.69c3.418-2.931 5.945-6.694 7.302-10.874 1.357-4.179 1.49-8.611.385-12.804L623.774 2.22a6.773 6.773 0 0 0-1.794-3.142 7.185 7.185 0 0 0-3.203-1.836 7.62 7.62 0 0 0-3.767-.044 7.644 7.644 0 0 0-3.335 1.76L297.795 272.07a25.54 25.54 0 0 1-10.258 5.48 25.538 25.538 0 0 1-11.623.383l.613.792Z" stroke="#F7FAFF" stroke-width="2"/></g><path fill="url(#e)" d="M103-3h632v570H103z"/><path fill="url(#f)" d="M226-3h509v570H226z"/></g></g><defs><linearGradient id="e" x1="735" y1="148" x2="103" y2="148" gradientUnits="userSpaceOnUse"><stop stop-color="#120024"/><stop offset="1" stop-color="#120024" stop-opacity="0"/></linearGradient><linearGradient id="f" x1="735" y1="148" x2="226" y2="148" gradientUnits="userSpaceOnUse"><stop stop-color="#120024"/><stop offset="1" stop-color="#120024" stop-opacity="0"/></linearGradient><filter id="c" x="-220.567" y="-251.938" width="957.859" height="925.219" filterUnits="userSpaceOnUse" color-interpolation-filters="sRGB"><feFlood flood-opacity="0" result="BackgroundImageFix"/><feColorMatrix in="SourceAlpha" values="0 0 0 0 0 0 0 0 0 0 0 0 0 0 0 0 0 0 127 0" result="hardAlpha"/><feOffset/><feGaussianBlur stdDeviation="7.883"/><feColorMatrix values="0 0 0 0 0.623529 0 0 0 0 0.266667 0 0 0 0 1 0 0 0 1 0"/><feBlend in2="BackgroundImageFix" result="effect1_dropShadow_147_2"/><feColorMatrix in="SourceAlpha" values="0 0 0 0 0 0 0 0 0 0 0 0 0 0 0 0 0 0 127 0" result="hardAlpha"/><feOffset/><feGaussianBlur stdDeviation="4.3"/><feColorMatrix values="0 0 0 0 0.623529 0 0 0 0 0.266667 0 0 0 0 1 0 0 0 1 0"/><feBlend in2="effect1_dropShadow_147_2" result="effect2_dropShadow_147_2"/><feColorMatrix in="SourceAlpha" values="0 0 0 0 0 0 0 0 0 0 0 0 0 0 0 0 0 0 127 0" result="hardAlpha"/><feOffset/><feGaussianBlur stdDeviation="1.433"/><feColorMatrix values="0 0 0 0 0.623529 0 0 0 0 0.266667 0 0 0 0 1 0 0 0 1 0"/><feBlend in2="effect2_dropShadow_147_2" result="effect3_dropShadow_147_2"/><feBlend in="SourceGraphic" in2="effect3_dropShadow_147_2" result="shape"/></filter><filter id="d" x="-217.039" y="-241.504" width="955.859" height="923.219" filterUnits="userSpaceOnUse" color-interpolation-filters="sRGB"><feFlood flood-opacity="0" result="BackgroundImageFix"/><feColorMatrix in="SourceAlpha" values="0 0 0 0 0 0 0 0 0 0 0 0 0 0 0 0 0 0 127 0" result="hardAlpha"/><feOffset/><feGaussianBlur stdDeviation="7.883"/><feColorMatrix values="0 0 0 0 0.623529 0 0 0 0 0.266667 0 0 0 0 1 0 0 0 1 0"/><feBlend in2="BackgroundImageFix" result="effect1_dropShadow_147_2"/><feColorMatrix in="SourceAlpha" values="0 0 0 0 0 0 0 0 0 0 0 0 0 0 0 0 0 0 127 0" result="hardAlpha"/><feOffset/><feGaussianBlur stdDeviation="4.3"/><feColorMatrix values="0 0 0 0 0.623529 0 0 0 0 0.266667 0 0 0 0 1 0 0 0 1 0"/><feBlend in2="effect1_dropShadow_147_2" result="effect2_dropShadow_147_2"/><feColorMatrix in="SourceAlpha" values="0 0 0 0 0 0 0 0 0 0 0 0 0 0 0 0 0 0 127 0" result="hardAlpha"/><feOffset/><feGaussianBlur stdDeviation="1.433"/><feColorMatrix values="0 0 0 0 0.623529 0 0 0 0 0.266667 0 0 0 0 1 0 0 0 1 0"/><feBlend in2="effect2_dropShadow_147_2" result="effect3_dropShadow_147_2"/><feBlend in="SourceGraphic" in2="effect3_dropShadow_147_2" result="shape"/></filter><clipPath id="a"><path fill="#fff" d="M0 0h735v471H0z"/></clipPath></defs></svg>